<?xml version="1.0" standalone="no"?><!DOCTYPE svg PUBLIC "-//W3C//DTD SVG 1.1//EN" "http://www.w3.org/Graphics/SVG/1.1/DTD/svg11.dtd"><svg t="1724739755544" class="icon" viewBox="0 0 1024 1024" version="1.1" xmlns="http://www.w3.org/2000/svg" p-id="26924" xmlns:xlink="http://www.w3.org/1999/xlink" width="200" height="200"><path d="M930.6 868.7H156.3V127.9c0-16.4-13.3-29.8-29.8-29.8-16.4 0-29.8 13.3-29.8 29.8v770.5c-0.9 15.5 10.9 28.8 26.4 29.7 1.1 0.1 2.3 0.1 3.4 0h804c16.4 0 29.8-13.3 29.8-29.8 0.1-16.3-13.3-29.6-29.7-29.6z" fill="#00A496" p-id="26925"></path><path d="M386 832.8c-1 0.1-2 0.1-3 0H252.4c-13.6 0.8-25.3-9.6-26.1-23.1-0.1-1-0.1-2 0-3V415.2c1-14 12.1-25.2 26.1-26.1H383c14 1 25.2 12.1 26.1 26.1v391.5c0.9 13.6-9.5 25.3-23.1 26.1zM647.1 832.8c-1 0.1-2.1 0.1-3.1 0H513.5c-13.6 0.8-25.3-9.5-26.1-23.1-0.1-1-0.1-2 0-3V310.6c-0.8-13.6 9.5-25.3 23.1-26.1 1-0.1 2-0.1 3 0H644c13.6-0.8 25.3 9.5 26.1 23.1 0.1 1 0.1 2 0 3v496.1c0.9 13.6-9.4 25.3-23 26.1zM908 832.8c-1 0.1-2 0.1-3 0H774.5c-13.6 0.8-25.3-9.5-26.1-23.1-0.1-1-0.1-2 0-3V154.2c-0.8-13.6 9.5-25.3 23.1-26.1 1-0.1 2-0.1 3 0H905c13.6-0.8 25.3 9.5 26.1 23.1 0.1 1 0.1 2 0 3v652.5c0.9 13.6-9.5 25.3-23.1 26.1z" fill="#00A496" p-id="26926"></path><path d="M800.6 180.3h78.3v600.3h-78.3zM539.6 336.8h78.3v443.7h-78.3zM278.5 441.2h78.3v339.3h-78.3z" fill="#FFFFFF" p-id="26927"></path></svg>