<?xml version="1.0" encoding="UTF-8"?>
<svg xmlns="http://www.w3.org/2000/svg" version="1.1" viewBox="0 0 299.43 297.71">
  <defs>
    <style>
      .cls-1, .cls-2 {
        fill: #fffffd;
      }

      .cls-3, .cls-4 {
        fill: none;
      }

      .cls-2, .cls-5, .cls-4 {
        stroke-miterlimit: 10;
      }

      .cls-2, .cls-4 {
        stroke: #fffffd;
      }

      .cls-5 {
        fill: #231815;
        stroke: #040000;
      }
    </style>
  </defs>
  <!-- Generator: Adobe Illustrator 28.6.0, SVG Export Plug-In . SVG Version: 1.2.0 Build 709)  -->
  <g>
    <g id="_图层_5" data-name="图层_5">
      <polygon class="cls-5" points="0 1.45 0 297.71 299.43 297.71 299.43 0 0 1.45"/>
    </g>
    <g id="_图层_2" data-name="图层_2">
      <path class="cls-1" d="M170.35,131.05l-24.63-.64c-.4-2.03-2.04-9.01-8.51-14.22-6.66-5.35-14.01-5.27-16.51-5.21-8.36.22-14.1,4.39-18.03,7.24-8.59,6.24-12.51,14.01-14.22,17.53-4.91,10.03-5.14,18.94-5.21,23.61-.15,10.39-.29,19.41,6.35,26.42,6.37,6.72,16.27,8.75,24.13,7.24,13.36-2.58,20.12-15.24,22.22-19.18.82-1.54,1.4-2.88,1.78-3.81,8.72,1.14,17.44,2.29,26.16,3.43-1.42,4.75-4.38,12.5-10.8,20.19-2.01,2.42-9.65,11.16-22.98,16.51-9.44,3.78-17.27,4.07-23.75,4.32-9.46.35-16.5.61-24.76-3.05-11.12-4.94-16.81-13.61-18.41-16.13-5.68-8.92-6.35-17.29-7.11-26.79-1.28-15.96,2.15-28.03,2.92-30.61,2.15-7.27,5.89-19.85,17.52-30.98,12.29-11.75,26.02-14.84,31.49-16,6.14-1.3,17.97-3.64,31.75,1.02,5.06,1.71,15.09,5.1,22.6,15.23,7.13,9.62,7.91,19.79,8,23.88Z"/>
      <path class="cls-3" d="M178.4,196.11c-2.11.95-3.2,3.26-3.37,5.21-.15,1.77.34,4.64,2.6,5.84,2.57,1.37,5.8-.29,7.37-2.29,1.51-1.92,2.24-5.13.7-7.17-1.24-1.64-3.45-1.89-4.13-1.97-.62-.07-1.86-.21-3.17.38Z"/>
      <path class="cls-4" d="M171.98,193.7c-.21.21-4.84,5.03-3.24,11.24.18.68,1.35,4.95,5.52,7.05,2.99,1.5,5.81,1.04,7.11.83,1.48-.24,6.64-1.35,9.46-6.29.53-.93,3.11-5.35,1.14-9.9-1.53-3.55-4.86-4.96-5.9-5.4-4.11-1.73-10.09-1.56-14.1,2.48Z"/>
      <path class="cls-4" d="M178.14,197c-1.52,1.18-2.01,2.76-2.19,3.37-.51,1.75-.81,5.24,1.43,6.83,2.32,1.64,6.07.33,7.84-2.06,1.94-2.62,1-5.76.95-5.9-.21-.64-.74-2.27-2.32-3.11-2.02-1.07-4.41-.12-5.71.89Z"/>
      <path class="cls-4" d="M205.25,195.98c-.72.48-1.97,1.46-2.76,3.14-1.11,2.37-1.39,6.34,1.05,8.06,2.52,1.78,6.57.21,8.38-2.38.1-.14,2-2.97.76-6.06-.17-.42-1.22-3.04-3.84-3.52-1.76-.33-3.18.5-3.59.76Z"/>
      <path class="cls-4" d="M203.19,191.22c-5.2,1.78-7.01,7.25-7.14,7.68-.33,1.05-1.7,5.46.89,9.33,2.73,4.08,7.69,4.35,8.89,4.41.61.03,8.3.32,11.71-5.9,2.14-3.9,1.96-9.18-.98-12.54-3.09-3.52-7.99-3.52-9.56-3.52-.98,0-2.26,0-3.81.54Z"/>
      <path class="cls-2" d="M230.71,198.97c.71-.87,2.35-2.61,5.05-3.52,1.5-.51,2.84-.59,3.78-.57.1-1.51.19-3.03.29-4.54-1-.06-2.7-.03-4.63.67-2.11.76-3.52,1.95-4.25,2.67l.19-2.98h-5.94l-5.43,21.98h7.59l3.37-13.69Z"/>
      <path class="cls-4" d="M246.52,191.25c-5.17,1.9-6.98,6.83-7.19,7.43-.24.68-2.25,6.77,1.52,11.05,2.88,3.27,7.19,3.28,8.76,3.29,1.33,0,4.8.02,7.71-2.38,4.04-3.33,5.29-9.86,2.62-14.57-2.18-3.85-6.14-5.01-6.62-5.14-3.3-.92-6.04.05-6.81.33Z"/>
      <path class="cls-4" d="M247.28,196.63c-2.2,1.31-3.1,3.95-2.76,6.19.07.44.59,3.55,3.33,4.57,2.24.83,4.51-.27,5.76-1.57,1.97-2.04,1.61-4.73,1.52-5.29-.1-.65-.48-3.03-2.62-4.19-2.44-1.32-5,.14-5.24.29Z"/>
      <polygon class="cls-2" points="256.9 192.34 258.99 183.48 266.99 183.48 259.75 212.66 252.42 213.01 256.9 192.34"/>
      <path class="cls-1" d="M257.13,195.04l-.29,2.6c-.05.49.42.92.87.98.48.06.97-.23,1.1-.72.36-1.37.66-2.75.88-4.15.08-.51-.13-1.1-.7-1.23-.5-.11-1.12.15-1.23.7-.38,1.86-.68,3.74-.92,5.63-.06.49.43.92.87.98.53.07.91-.25,1.1-.72.26-.66.4-1.34.53-2.04s.26-1.42.39-2.14c.09-.51-.14-1.1-.7-1.23-.52-.12-1.1.16-1.23.7-.28,1.13-.53,2.27-.76,3.41l1.83-.24-.18-.32c-.26-.45-.92-.65-1.37-.36s-.64.88-.36,1.37l.18.32c.41.71,1.66.63,1.83-.24.22-1.14.48-2.28.76-3.41l-1.93-.53c-.13.71-.26,1.43-.39,2.14s-.27,1.38-.53,2.04l1.96.27c.02-.12.03-.24.05-.36,0-.07,0-.07,0,0,0-.05.01-.1.02-.16.03-.22.06-.45.1-.67.06-.43.13-.86.2-1.29.14-.88.31-1.75.48-2.62l-1.93-.53c-.22,1.4-.51,2.78-.88,4.15l1.96.27.29-2.6c.06-.52-.5-1.02-1-1-.59.03-.94.44-1,1h0Z"/>
      <path class="cls-1" d="M254.09,195.35l1.57,1.17c.19.14.56.17.77.1s.38-.18.52-.36.22-.39.21-.61c-.01-.25-.09-.54-.29-.71-.48-.38-.9-.82-1.28-1.3l.16.2c-.21-.28-.44-.58-.59-.89l.14.5v-.04c-.05.17-.09.34-.14.5v-.02c-.11.12-.23.24-.35.36h.02c-.08.02-.16.05-.24.09h.03c-.09,0-.18.02-.27.03h.03c-.09,0-.18-.02-.27-.03h.03c-.08-.03-.16-.06-.24-.09.18.08.34.23.5.34.18.12.36.25.54.37.36.25.72.5,1.08.74.2.14.54.16.77.1s.48-.24.6-.46c.12-.23.18-.51.1-.77l-.1-.24c-.09-.15-.21-.27-.36-.36-.5-.39-1.01-.78-1.51-1.17l-1.01,1.73,2.02.87c.26.11.49.18.77.1.23-.06.48-.24.6-.46.12-.23.18-.51.1-.77-.08-.23-.23-.49-.46-.6-.7-.32-1.37-.72-1.99-1.19l-.5,1.86s.06,0,.09,0l-.27-.04c.14.02.27.06.4.11l-.24-.1c.25.11.47.25.7.39.25.15.5.3.74.45.37.22.92.17,1.21-.16.12-.13.2-.28.26-.44.08-.26.01-.54-.1-.77-.21-.44-.57-.79-.97-1.06-.44-.28-1.12-.1-1.37.36-.26.5-.11,1.06.36,1.37.05.03.09.06.14.1l-.2-.16c.1.08.19.17.27.27l-.16-.2c.08.1.15.21.2.33l1.37-1.37c-.34-.21-.68-.41-1.03-.62-.44-.26-.9-.45-1.42-.48-.22-.01-.44.09-.61.21s-.31.31-.36.52c-.04.18-.04.36,0,.53.06.27.25.44.46.6.62.47,1.28.86,1.99,1.19l1.01-1.73-2.02-.87c-.26-.11-.49-.18-.77-.1-.23.06-.48.24-.6.46-.12.23-.18.51-.1.77l.1.24c.09.15.21.27.36.36.5.39,1.01.78,1.51,1.17l1.01-1.73c-.48-.33-.96-.66-1.44-.99-.22-.15-.44-.34-.68-.46-.36-.18-.76-.2-1.11,0-.45.27-.62.83-.42,1.31.23.54.63,1.03,1,1.47.32.38.68.73,1.07,1.05l1.21-1.57-1.57-1.17c-.2-.14-.55-.16-.77-.1s-.48.24-.6.46c-.12.23-.18.51-.1.77s.24.43.46.6h0Z"/>
      <path class="cls-1" d="M244.89,193.5c-1.42.83-2.52,2.58-3.2,4.03-.37.8-.67,1.62-.87,2.48-.18.81-.45,1.81.06,2.55.33.49,1.13.73,1.57.2.71-.85.76-1.98,1.05-3.02.32-1.15.72-2.26,1.22-3.35.41-.89-.44-1.86-1.37-1.37-1.17.62-1.93,1.92-2.47,3.08-.62,1.33-.99,2.71-1.14,4.16-.09.88,1.15,1.3,1.71.71.41-.43.53-1.01.71-1.56.2-.6.39-1.19.59-1.79.37-1.15.82-2.28.97-3.48.08-.67-.7-1.1-1.27-.96-.66.16-.92.69-1.2,1.25-.31.63-.6,1.26-.87,1.91-.56,1.34-.99,2.62-.74,4.09.13.76,1.18.93,1.67.44.54-.54.64-1.39.84-2.1.24-.87.48-1.74.72-2.6.28-1.02-.94-1.59-1.67-.97s-1.05,1.61-1.37,2.45c-.36.94-.59,1.91-.73,2.9-.08.54.13,1.07.7,1.23.5.14,1.12-.17,1.23-.7.23-1.07.46-2.13.69-3.2.19-.87.44-1.85-.49-2.39-.45-.26-1.12-.12-1.37.36-1.3,2.49-1.56,5.39-.64,8.05.29.84,1.75,1.06,1.93,0,.3-1.78.61-3.55,1.2-5.26l-1.96-.27c.13,1.65-.28,3.29-.08,4.94.11.94,1.31,1.42,1.86.5.49-.8.5-1.73.66-2.63.18-1.03.43-2.04.74-3.04l-1.96-.27c0,1.38-.62,2.59-.36,3.99.19,1.03,1.65.87,1.93,0,.39-1.23.77-2.46,1.16-3.69l-1.93-.53c-.21,1.46-.42,2.92-.63,4.38l1.96.27c.1-.91.22-1.8.48-2.68l-1.96-.27c-.03.69-.1,1.37-.22,2.06h1.93l-.09-.46c-.21-1.09-2.1-.86-1.96.27.23,1.9.49,3.82,1.55,5.46.61.93,2.13.36,1.83-.77-.48-1.77-1.13-3.47-1.94-5.12-.39-.79-1.61-.55-1.83.24-.26.96.23,1.82.7,2.64s1.01,1.55,1.6,2.27c.76.91,2.07-.25,1.57-1.21-.69-1.34-1.09-2.79-1.19-4.29l-1.96.27c.3,1.27.31,2.52.82,3.73.19.46.84.58,1.25.41.49-.2.67-.68.58-1.18-.16-.95-.78-1.77-1.64-2.2-.65-.33-1.52.07-1.5.86.03,1.56.15,3.1.36,4.65l.73-.96-.12.03.77.1c-.38-.28-.69-.91-.99-1.29-.35-.45-.7-.89-1.05-1.34-.53-.68-1.76-.11-1.71.71.08,1.13.46,2.08,1.18,2.95.32.38.95.36,1.31.08.42-.33.46-.82.26-1.29-.44-1.01-.95-1.91-1.91-2.52-.71-.45-1.75.31-1.47,1.13.38,1.1.87,2.13,1.52,3.1.54.82,1.84.52,1.86-.5.03-1.47-.5-2.82-1.48-3.91-.79-.88-2.07.24-1.57,1.21.58,1.13,1.45,2.87,2.81,3.23,1.89.5,1.85-2.47,1.92-3.58l-1.86.5c.98,1.33,1.96,3.22,3.62,3.76.53.17,1.07-.2,1.23-.7.33-.98-.37-1.8-.9-2.57-.57-.83-1.16-1.65-1.76-2.47l-1.73,1.01c.81,1.07,1.62,2.09,2.73,2.87.98.69,1.9-.76,1.21-1.57-.56-.66-1.17-1.25-1.84-1.8-.82-.67-2.23.18-1.57,1.21,1.54,2.4,4.08,3.14,6.65,3.97,1.23.4,1.75-1.53.53-1.93-2.02-.65-4.24-1.16-5.46-3.05l-1.57,1.21c.67.55,1.28,1.14,1.84,1.8l1.21-1.57c-.81-.57-1.42-1.37-2.01-2.15-.76-1.01-2.5-.03-1.73,1.01.44.59.87,1.19,1.29,1.79.21.3.42.6.63.91.07.1.57.7.54.8l1.23-.7c-.5-.16-.82-.69-1.12-1.08-.44-.58-.87-1.17-1.31-1.75-.59-.79-1.79-.53-1.86.5-.03.43.1,1.56-.22,1.9l.71-.29c.28.11.29.09.03-.05-.11-.09-.21-.19-.31-.29-.15-.16-.29-.33-.41-.51-.31-.45-.55-.93-.8-1.41l-1.57,1.21c.63.7.91,1.56.89,2.5l1.86-.5c-.55-.83-.99-1.69-1.31-2.62l-1.47,1.13c.62.4.91,1.15,1.19,1.8l1.57-1.21c-.36-.44-.56-.97-.6-1.54l-1.71.71c.53.67,1.05,1.34,1.58,2.01.47.6.9,1.23,1.76,1,.38-.1.79-.54.73-.96-.21-1.54-.32-3.09-.36-4.65l-1.5.86c.46.23.64.51.72,1.01l1.83-.77c-.43-1.01-.37-2.2-.62-3.26s-2.04-.87-1.96.27c.12,1.87.6,3.64,1.46,5.3l1.57-1.21c-.38-.45-.72-.93-1.03-1.43-.21-.34-.86-1.15-.75-1.54l-1.83.24c.73,1.49,1.31,3.04,1.74,4.64l1.83-.77c-.87-1.33-1.09-2.9-1.28-4.45l-1.96.27.09.46c.18.95,1.76.96,1.93,0,.15-.86.25-1.72.29-2.59.05-1.15-1.65-1.33-1.96-.27s-.43,2.13-.55,3.22,1.8,1.38,1.96.27c.21-1.46.42-2.92.63-4.38.18-1.24-1.53-1.8-1.93-.53s-.77,2.46-1.16,3.69h1.93c-.21-1.12.43-2.32.43-3.46s-1.63-1.34-1.96-.27c-.29.91-.52,1.83-.7,2.77-.14.76-.1,1.75-.51,2.42l1.86.5c-.2-1.65.22-3.29.08-4.94-.09-1.12-1.59-1.36-1.96-.27-.59,1.71-.9,3.48-1.2,5.26h1.93c-.75-2.16-.62-4.48.44-6.51l-1.37.36c-.18-.55-.3-.65-.34-.29l-.12.56-.21.97c-.15.7-.3,1.39-.45,2.09l1.93.53c.12-.82.3-1.63.56-2.41.22-.66.48-1.6,1.03-2.06l-1.67-.97c-.19.69-.38,1.37-.57,2.06-.09.32-.18.64-.27.96-.05.16-.16.75-.21.8l1.67.44c-.15-.9.25-1.83.59-2.64.16-.4.34-.79.52-1.18.1-.21.2-.42.31-.63l.13-.25c.21-.31.17-.34-.12-.08l-1.27-.96c-.11.95-.56,1.91-.85,2.81-.15.46-.3.92-.45,1.38-.09.28-.18.55-.27.83-.05.15-.39.7-.11.4l1.71.71c.12-1.08.41-2.17.87-3.15.39-.84.9-1.91,1.76-2.36l-1.37-1.37c-.45.99-.86,2-1.19,3.04-.16.52-.31,1.05-.44,1.58-.08.35-.1,1.07-.33,1.34l1.57.2c-.19-.27.2-1.28.28-1.58.18-.64.42-1.26.73-1.85.51-.99,1.29-2.31,2.27-2.89,1.11-.65.1-2.38-1.01-1.73h0Z"/>
      <path class="cls-1" d="M249.84,208.3l-.21.03c-.31.05-.64.39-.7.7-.07.38-.01.76.27,1.04.16.17.39.28.61.33.4.1.78.08,1.18,0,.31-.06.6-.19.89-.32.13-.05.25-.11.38-.17.18-.08-.19.07.01,0,.06-.02.13-.05.19-.07l-.77-1.83c-.13.05,0,.03.03-.01-.03.03-.13.05-.17.07-.09.04-.19.07-.28.11-.21.08-.42.16-.63.23-.19.07-.39.12-.59.17-.14.03,0-.02.06,0-.03-.01-.1,0-.14,0-.03,0-.23-.02-.08,0,.17.03-.06-.02-.07-.02l.6,1.47c.12-.17-.16.16,0,.01.04-.04.08-.09.13-.13.03-.03.14-.15.04-.03s.03-.01.07-.04c.09-.06.19-.11.29-.16l.06-.03c.1-.04.07-.03-.07.03.04,0,.11-.04.14-.05.47-.17.96-.27,1.43-.45.29-.11.57-.24.84-.4.04-.02.14-.06.18-.09l-.12.05c.09-.02.08-.02,0-.01-.08,0-.09.01-.02,0,.1,0,.2-.01.29-.04.17-.05.33-.14.46-.26.5-.48.38-1.33-.22-1.66-.26-.14-.6-.18-.88-.1-.19.06-.36.17-.53.26l1.01,1.73s.16-.07.18-.1l-.11.05s.09-.03.13-.04l-1.13-1.47c.15-.23.37-.35.64-.37-.52-.01-1.02.47-1,1s.44.99,1,1c.44.01.87-.24,1.09-.62.43-.77-.28-1.69-1.13-1.47-.24.06-.47.16-.68.29-.44.28-.66.9-.36,1.37s.88.64,1.37.36c.05-.03.11-.06.16-.09.37-.21-.21.2-.75-.06l-.36-.36v.02c-.03-.17-.08-.34-.12-.5v.03c.1-.24.19-.47.29-.71l-.03.03.44-.26s.28-.04.12,0c-.12.02-.24.02-.36.06-.15.04-.31.12-.45.19-.17.09-.33.18-.5.27-.11.06.2-.07.02,0-.04.02-.08.03-.13.05-.1.03-.19.06-.29.09-.19.06-.39.11-.59.17-.91.27-1.71.67-2.28,1.45-.38.53.02,1.31.6,1.47.61.16,1.23.06,1.82-.14.54-.19,1.07-.4,1.6-.63.2-.09.41-.39.46-.6.05-.22.04-.44-.05-.65-.18-.44-.7-.74-1.18-.58-.23.08-.46.18-.69.27-.08.04-.17.07-.25.11-.04.02-.08.04-.13.06.13-.06.15-.06.05-.02-.09.03-.17.06-.26.09-.04.01-.24.09-.27.06.15-.02.17-.02.06-.01-.05,0-.09,0-.14,0-.11,0-.09,0,.06,0-.25-.07-.12.04.37.34l.1.77v-.04c-.23.23-.46.47-.69.7l.21-.03c.23-.04.48-.26.6-.46.13-.21.18-.53.1-.77-.18-.56-.68-.79-1.23-.7h0Z"/>
      <path class="cls-1" d="M244.9,208.13c-.88-.73-2.17-.01-1.83,1.16.23.78.95,1.45,1.64,1.83l1.01-1.73c-.77-.38-1.55-.72-2.35-1.02-.36-.13-.73-.27-1.11-.17-.48.13-.8.54-.89,1.01-.15.78.46,1.42,1.02,1.87.6.48,1.29.82,2.04.96,1.1.21,1.75-1.19.77-1.83-.84-.55-1.75-.98-2.7-1.3-.42-.14-.92.09-1.13.46-.24.41-.13.87.16,1.21,1.27,1.53,3.24,2.28,5.19,2.36.93.04,2.76-.04,2.36-1.49-.17-.64-.84-.97-1.34-1.33s-.99-.71-1.48-1.06l-.77,1.83c.9.12,1.81.23,2.71.3s1.82.12,2.71-.13c1.01-.29.89-1.59,0-1.93-.83-.31-1.67-.49-2.54-.58-1-.11-1.34,1.42-.5,1.86,1.25.66,2.64.66,3.98,1.02v-1.93c-1.2.18-2.37.46-3.51.86-1.07.37-.88,1.9.27,1.96s2.34.09,3.52-.1c.53-.09.83-.75.7-1.23-.16-.58-.69-.77-1.23-.7-.91.13-1.84.15-2.76.11-1.07-.05-1.26,1.34-.5,1.86.53.37,1.18.34,1.79.33.67-.02,1.33-.06,2-.13.44-.04.84-.28.96-.73.11-.4-.07-.94-.46-1.13-.61-.3-1.16-.24-1.81-.15s-1.32.18-1.98.28c-.48.07-.78.66-.72,1.1.08.52.47.82.98.87,1.2.11,2.4,0,3.57-.3,1.1-.29.86-1.95-.27-1.96h-.23c-1.29-.02-1.29,1.98,0,2h.23c-.09-.65-.18-1.31-.27-1.96-1,.26-2.01.33-3.04.23l.27,1.96c.44-.07.89-.13,1.33-.2.17-.02.33-.04.5-.06.11-.01.23-.03.34-.04.18.01.2,0,.07-.03l.5-1.86c-.54.05-1.08.09-1.62.11-.25.01-.51.02-.76.02-.1,0-.21,0-.31,0-.18-.02.18.13-.09-.06l-.5,1.86c1.11.05,2.2-.02,3.29-.18l-.53-1.93c-.98.16-2,.08-2.99.03l.27,1.96c1.14-.39,2.32-.68,3.51-.86,1.02-.15.89-1.69,0-1.93-1.14-.31-2.44-.26-3.5-.82l-.5,1.86c.69.08,1.36.27,2.01.51v-1.93c-.71.2-1.46.12-2.18.06s-1.46-.13-2.18-.23c-1.11-.15-1.74,1.14-.77,1.83.36.26.73.52,1.09.78.24.18.83.5.91.65l-.1-.77-.03.12.46-.6c.28-.16.17-.06-.03-.04-.13,0-.25.01-.38.02-.25,0-.51,0-.76-.02-.44-.04-.87-.14-1.29-.27-.87-.28-1.6-.78-2.19-1.49l-.97,1.67c.79.27,1.52.64,2.22,1.1l.77-1.83c-.37-.07-.71-.18-1.03-.37-.14-.08-.26-.17-.37-.28-.08-.07-.15-.15-.23-.23-.06-.06-.05-.02.02.11l-.14.5.06-.11-.36.36.11-.06-.5.14c.14,0,.77.3,1.03.42.39.17.78.35,1.16.54,1.14.56,2.15-1.1,1.01-1.73-.18-.1-.33-.19-.47-.34-.06-.06-.11-.13-.17-.19-.11-.11-.04-.27-.06,0l-.29.71.05-.05-.44.26h.07c-.32-.1-.65-.18-.97-.27l.05.04c.42.34,1.01.41,1.41,0,.35-.35.42-1.07,0-1.41h0Z"/>
      <path class="cls-1" d="M246.55,193.2c-.7.02-1.21.39-1.74.8-.36.29-.71.59-1.04.92-.71.71-1.33,1.53-1.84,2.4-.25.43-.13.99.26,1.29.36.28,1,.31,1.31-.08.57-.72,1.13-1.44,1.69-2.17s1.21-1.42,1.24-2.34c.01-.45-.32-.84-.73-.96-.67-.2-1.19.21-1.68.6-.36.29-.7.62-1.02.96-.67.71-1.25,1.49-1.84,2.27l1.73,1.01c.49-.86.98-1.73,1.47-2.59.21-.37.17-.91-.16-1.21-.31-.28-.84-.42-1.21-.16-1.56,1.1-2.71,2.6-3.36,4.39-.34.94,1.02,1.69,1.67.97.81-.89,1.67-1.74,2.61-2.5.05-.04.11-.09.16-.13.01-.01.16-.12.1-.08-.07.05.12-.09.14-.11.05-.04.11-.08.16-.12.25-.18.5-.35.75-.52.51-.33,1.04-.63,1.59-.9l-1.37-1.37c-1.17,1.76-2.58,3.3-3.38,5.28-.37.92,1.05,1.72,1.67.97l2.17-2.62-1.57-1.21c-.33.53-.66,1.06-.99,1.59-.16.26-.32.51-.47.77s-.36.56-.44.87c-.12.5.05,1.05.5,1.32s1.02.19,1.41-.16c.47-.42.69-1.15.85-1.74.13-.48-.13-.99-.58-1.18-.42-.18-1.04-.04-1.25.41-.19.42-.38.84-.58,1.26l1.86.5c-.1.26-.11.31-.02.16.29-.44.1-1.12-.36-1.37-.5-.26-1.06-.11-1.37.36-.17.26-.23.54-.26.85-.04.42.33.87.73.96s.94-.05,1.13-.46.38-.84.58-1.26l-1.83-.77c-.06.21-.12.42-.21.62.06-.14-.08.17-.08.16-.07.19-.02,0,.09-.05l.5-.14h-.07c.17.05.34.1.5.14l-.06-.03.36.36c-.1.68-.08.88.07.58.04-.07.07-.13.11-.2.07-.13.15-.26.23-.39.14-.23.28-.45.41-.67.31-.5.62-.99.93-1.49.26-.42.12-1-.26-1.29s-.99-.31-1.31.08l-2.17,2.62,1.67.97c.05-.11.05-.12.02-.04.03-.06.05-.12.08-.18.06-.12.12-.24.18-.36.11-.21.22-.41.34-.61.25-.41.53-.81.81-1.21.58-.8,1.2-1.58,1.75-2.41.24-.35.16-.93-.16-1.21-.34-.32-.8-.36-1.21-.16-2.27,1.12-4.22,2.8-5.91,4.67l1.67.97c.03-.09.07-.18.1-.27.08-.22-.04.08.05-.11.08-.17.16-.34.26-.51.18-.33.39-.65.62-.96-.1.13.06-.07.08-.1.06-.07.12-.15.19-.22.13-.14.26-.28.4-.41.13-.12.26-.24.39-.35.03-.02.22-.18.16-.13-.05.04-.03.03.05-.04.05-.04.1-.07.15-.11l-1.37-1.37c-.49.86-.98,1.73-1.47,2.59-.26.46-.12,1.11.36,1.37.53.28,1.03.09,1.37-.36.42-.55.8-1.05,1.32-1.63.24-.27.5-.53.76-.78.13-.12.26-.23.39-.34,0,0,.24-.19.12-.1l.08-.06c.2-.12.07-.12-.4,0l-.73-.96c0-.24-.02.08.01-.03s-.06.11-.08.13c-.09.14-.19.28-.29.42-.22.31-.45.61-.67.91-.44.58-.82,1.07-1.3,1.67l1.57,1.21c.21-.36.44-.7.68-1.03.04-.05.04-.05,0,0,.04-.05.08-.1.12-.16.06-.08.13-.15.19-.23.13-.15.26-.3.4-.44.27-.29.56-.56.87-.81.08-.06.15-.13.23-.19-.13.1.09-.07.11-.08.09-.07.19-.13.29-.19.06-.03.06-.03-.02,0,.12-.03.12-.03.02,0,.52-.01,1.02-.45,1-1s-.44-1.01-1-1h0Z"/>
      <path class="cls-1" d="M243.8,196.09c.26-.83,1.09-1.56,1.79-2.03.82-.56,1.71-.9,2.69-1.09l-.77-1.83c-1.01.48-1.88,1.17-2.75,1.86l1.57,1.21c.88-1.37,2.71-1.44,4.17-1.39s3.53.16,4.63,1.36l-.26-.44v.05c.24-.41.47-.82.71-1.23h-.04c.41.24.82.48,1.23.71v-.03c-.37-1.23-2.3-.71-1.94.53v.03c.17.54.7.81,1.24.7h.04c.58-.13.77-.73.7-1.24s-.66-.84-1.04-1.09c-.5-.34-1.04-.6-1.61-.8-1.13-.42-2.36-.49-3.55-.54-2.27-.09-4.7.32-6.01,2.38-.27.42-.12,1,.26,1.29.42.33.92.24,1.31-.08.74-.58,1.49-1.14,2.35-1.54,1.09-.52.27-2.02-.77-1.83-2.36.44-5.12,2.09-5.88,4.51-.38,1.23,1.55,1.76,1.93.53h0Z"/>
      <path class="cls-1" d="M249.79,191.91c-1.42.05-2.62.98-3.65,1.88s-1.79,1.89-2.24,3.12c-.28.74.54,1.41,1.23,1.23.42-.11.81-.46.89-.9.09-.51-.14-1.1-.7-1.23-.49-.11-1.13.15-1.23.7l.51-.49,1.23,1.23s.09-.24.04-.1.03-.07.04-.09c.06-.12.12-.23.18-.35.12-.22.26-.46.43-.65-.09.1-.05.07.01-.01.04-.05.08-.1.13-.15.09-.1.17-.2.27-.29.18-.19.37-.37.57-.55.1-.09.2-.17.3-.26.04-.03.08-.07.12-.1.21-.17-.17.12.05-.04s.41-.3.62-.45c.12-.08.23-.15.35-.22.06-.03.12-.07.18-.1,0,0,.23-.11.1-.05s.08-.03.11-.04c.06-.02.13-.04.19-.06.06-.01.14-.05.2-.04h-.11c.05,0,.11,0,.16,0,.52-.02,1.02-.45,1-1s-.44-1.02-1-1h0Z"/>
      <path class="cls-1" d="M246.64,197.06c.19-.32.42-.54.65-.82.02-.03.18-.14.06-.09.1-.05.28-.02.39-.05.13-.03.25-.08.36-.13.29-.14.53-.35.84-.45.35-.1.71-.11,1.07-.11.8,0,1.58.11,2.35.32.38.1.77.23,1.13.38.46.19.81.43,1.33.31.33-.07.62-.38.7-.7.06-.27.06-.6-.11-.83-.27-.37-.66-.58-1.13-.46h-.03c-1.25.32-.72,2.25.53,1.93h.03c-.38-.16-.75-.31-1.13-.47l.02.03-.1-.77v.03c.22-.23.46-.47.69-.7h-.05c.18.01.35.01.53.01.14.05-.14-.07-.17-.08-.11-.05-.22-.1-.33-.14-.23-.1-.46-.19-.7-.27-.44-.15-.89-.27-1.35-.37-.92-.18-1.9-.29-2.84-.21-.46.04-.91.12-1.34.3-.21.09-.41.19-.6.31-.01,0-.34.18-.15.12s-.18,0-.19,0c-.96.11-1.71,1.09-2.18,1.87-.66,1.11,1.07,2.12,1.73,1.01h0Z"/>
      <path class="cls-1" d="M251.02,194.18c-.04.07-.25.29-.35.25.03,0,.05-.02.08-.02.08-.02.04-.01-.12.02,0,0,.17,0,.18,0,.21,0-.28-.05,0,0,.35.06.7.12,1.05.19.71.14,1.42.32,2.12.51l-.7-1.23.73-.58c-.08,0-.08,0,.02.01.16.02.02,0-.01-.01-.12-.05-.24-.09-.37-.13-.27-.1-.54-.2-.8-.31-.13-.05-.25-.1-.38-.15-.08-.03-.1-.04-.01,0-.07-.03-.14-.06-.21-.09-.26-.11-.52-.23-.78-.35l-.77,1.83c.08.02.16.05.24.08.05.02.11.04.16.06.09.04.1.04.04.01-.12-.05.12.06.15.07.08.04.15.07.23.11.32.16.62.35.92.54s.6.39.9.59c.16.1.32.21.47.31l.28.18c.22.14.02.03-.04-.08.25.46.92.65,1.37.36s.63-.88.36-1.37c-.25-.45-.77-.7-1.19-.97-.36-.23-.71-.47-1.07-.7-.71-.46-1.46-.88-2.29-1.12-.48-.14-.99.13-1.18.58-.18.42-.04,1.04.41,1.25.75.35,1.51.67,2.28.97.38.15.75.32,1.16.35.63.04,1.11-.31,1.32-.89.19-.51-.21-1.09-.7-1.23-.85-.24-1.71-.44-2.57-.6-.94-.17-2.06-.42-2.65.56-.27.45-.11,1.12.36,1.37s1.08.12,1.37-.36h0Z"/>
      <path class="cls-1" d="M251.33,193.65l-.06.1c-.23.38-.15.9.16,1.21.53.54,1.2.9,1.79,1.35l-.2-.16c.36.28.72.58,1.03.9l-.16-.2.02.03-.14-.5v.03c.05-.17.09-.34.14-.5v.02c.11-.12.23-.24.35-.36h-.02c.17-.04.34-.08.5-.13h-.02c.17.05.34.09.5.14h-.02c.15.19.31.39.46.59v-.02c-.09-.25-.24-.46-.47-.6-.21-.13-.53-.18-.77-.1-.49.16-.88.7-.7,1.23.09.26.24.48.48.62.32.18.71.18,1.03,0,.52-.29.65-.96.36-1.46-.11-.2-.31-.35-.47-.5-.13-.12-.26-.23-.39-.34-.3-.25-.61-.49-.93-.71-.26-.18-.53-.35-.78-.54l.2.16c-.15-.11-.28-.23-.41-.36l.16,1.21.06-.1c.27-.45.12-1.12-.36-1.37s-1.08-.12-1.37.36h0Z"/>
      <path class="cls-1" d="M252.07,196.16s.25.02.08,0,.04.01.08.02c.12.03.23.07.34.11.18.06-.11-.06,0,0,.05.03.11.05.16.08.11.06.22.12.32.18.21.12.41.24.61.37.05.03.1.06.15.1.06.04.18.07,0-.01.09.04.18.16.25.23s.22.32.07.07c.05.08.12.16.17.25.11.16.2.32.31.48.3.46.63.85,1.09,1.15s1.12.1,1.37-.36c.26-.5.11-1.06-.36-1.37-.03-.02-.05-.03-.07-.05-.06-.04-.03-.02.09.07-.01-.03-.08-.08-.11-.1-.07-.07-.13-.14-.2-.22-.08-.09.13.18.03.04-.03-.05-.07-.1-.1-.15-.06-.08-.11-.17-.16-.25-.26-.41-.54-.84-.92-1.16-.42-.35-.89-.64-1.37-.9-.58-.32-1.18-.54-1.84-.57-.52-.03-1.02.48-1,1,.03.56.44.97,1,1h0Z"/>
      <path class="cls-1" d="M213.98,201.02c-.55,1.96-1.06,3.93-1.52,5.91-.12.51.16,1.11.7,1.23s1.06-.16,1.23-.7c.66-2.09,1.23-4.2,1.71-6.34.12-.51-.16-1.11-.7-1.23s-1.07.16-1.23.7l-1.68,5.58,1.93.53.97-4.37c.11-.51-.15-1.11-.7-1.23s-1.05.17-1.23.7l-1.34,4.05,1.93.53c.2-.74.41-1.47.63-2.2.1-.34.21-.69.33-1.02,0-.02.07-.19.04-.11-.04.1.06-.13.07-.15.03-.06.06-.11.1-.16-.11.14.09-.06.1-.07l-1.71-.71c.05.54-.19,1.18-.34,1.77-.16.65-.33,1.31-.49,1.96-.12.49.12.98.58,1.18.43.18,1.03.04,1.25-.41.33-.66.64-1.33.99-1.98.16-.31.33-.61.5-.91.09-.14.17-.29.27-.43.03-.04.09-.12.02-.03.1-.13.04-.04-.05,0l-1.23-.7s.08.24.07.18c-.01-.08,0,.16,0,.19.02-.14-.04.18-.04.17-.02.07-.04.15-.06.22-.11.4-.23.8-.36,1.19-.26.77-.52,1.4-.88,2.12l1.83.77c.06-.38.13-.77.24-1.14.06-.2.12-.41.19-.61.03-.08.06-.17.09-.25.02-.05.04-.1.06-.15-.02.06-.02.06,0,0,.16-.35.34-.7.55-1.03.1-.17.21-.33.32-.48,0,0,.18-.24.1-.14.07-.08.13-.16.2-.25l-1.57-.2c-.05-.08.02-.35-.03-.13-.04.14-.08.28-.13.42-.09.27-.18.54-.27.81-.2.58-.4,1.15-.62,1.72l1.93.53c.13-.39.23-.62.45-1.02.1-.18.2-.35.31-.52.06-.09.12-.18.18-.27.01-.02.18-.24.11-.15l-1.67-.97c-.16.97-.44,1.68-.96,2.48l1.83.77c.11-.31.19-.5.39-.85.18-.32.38-.62.6-.9l-1.73-1.01c-.19.42-.39.82-.62,1.22-.11.19-.22.38-.35.56.08-.11,0,0-.05.04-.05.05-.04.04.03-.02.3-.05.36-.07.18-.08-.52-.04-1.02.49-1,1,.03.58.44.95,1,1,.76.06,1.31-.52,1.68-1.1.33-.51.61-1.05.86-1.6.21-.48.15-1.1-.36-1.37s-1.03-.09-1.37.36c-.52.68-.9,1.43-1.18,2.23-.17.47.15,1,.58,1.18.47.2.97.01,1.25-.41.58-.89.99-1.91,1.17-2.96.07-.43-.04-.91-.46-1.13-.36-.19-.94-.2-1.21.16-.68.87-1.2,1.8-1.57,2.85-.17.49.2,1.12.7,1.23.57.13,1.03-.17,1.23-.7.26-.68.5-1.37.73-2.07.25-.74.57-1.56.11-2.29-.32-.5-1.14-.72-1.57-.2-1.19,1.41-2.01,3.09-2.27,4.92-.07.5.08.97.58,1.18.43.18,1.03.04,1.25-.41.43-.88.81-1.78,1.12-2.71.29-.88.74-2,.36-2.91-.19-.46-.68-.91-1.23-.7-.9.34-1.34,1.19-1.77,1.99-.41.75-.77,1.52-1.15,2.29l1.83.77c.17-.7.35-1.39.52-2.09s.45-1.45.38-2.18c-.08-.89-1.02-1.28-1.71-.71-.63.53-.85,1.41-1.08,2.16-.25.81-.48,1.62-.7,2.44-.14.5.17,1.11.7,1.23s1.05-.17,1.23-.7l1.34-4.05-1.93-.53-.97,4.37c-.11.51.15,1.11.7,1.23s1.07-.16,1.23-.7l1.68-5.58-1.93-.53c-.49,2.14-1.06,4.25-1.71,6.34l1.93.53c.46-1.98.96-3.95,1.52-5.91.14-.5-.17-1.11-.7-1.23s-1.08.16-1.23.7h0Z"/>
      <path class="cls-1" d="M201.64,195.32c-.91.34-1.5,1.09-2.07,1.84-.52.68-.96,1.4-1.34,2.16s-.74,1.58-1.05,2.39c-.34.89-.69,1.8-.68,2.77.01.74.85,1.28,1.5.86.6-.38.87-.96,1.11-1.6s.42-1.36.62-2.04c.38-1.34.76-2.69,1.12-4.04.29-1.08-1.27-1.78-1.83-.77-.61,1.1-1.12,2.26-1.52,3.46-.33.98.98,1.64,1.67.97l.15-.15c.93-.9-.49-2.31-1.41-1.41l-.15.15,1.67.97c.35-1.04.78-2.03,1.32-2.98l-1.83-.77c-.32,1.2-.65,2.39-.99,3.58-.16.58-.32,1.17-.5,1.75-.09.3-.18.61-.3.9-.03.06-.05.11-.08.17-.04.08-.16.16-.05.09l1.5.86c-.01-.75.32-1.48.58-2.17.24-.63.51-1.25.81-1.86.32-.64.67-1.25,1.08-1.84.19-.27.39-.52.6-.77.16-.18.37-.51.6-.59.51-.19.85-.68.7-1.23-.13-.49-.72-.89-1.23-.7h0Z"/>
      <path class="cls-1" d="M198.79,194.9c-2.04,1.79-2.49,4.59-2.59,7.16h5c0-.91,0-1.81,0-2.72,0-1.25-.95-2.29-2.17-2.46-.53-.07-1.13,0-1.59.3-.58.38-.89.86-1.15,1.49-.44,1.08-.63,2.26-.67,3.43-.03,1.24.98,2.3,2.17,2.46.53.07,1.13,0,1.59-.3.51-.33,1.05-.87,1.15-1.49.06-.37.12-.75.17-1.12l-4.91-.66c-.07.61-.09,1.21-.04,1.82.03.46.1.91.16,1.36.02.11.03.22.06.33.17.69.64,1.12,1.18,1.52l.6.25c.33.1.66.12,1,.04.59-.08.96-.32,1.44-.69s.79-1.22.75-1.81-.18-1.06-.54-1.51c-.31-.39-.79-.81-1.3-.9h-.02c-.68-.12-1.31-.11-1.93.25-.52.3-1.01.9-1.15,1.49-.15.64-.11,1.36.25,1.93.33.52.86,1.04,1.49,1.15h.02c-.61-.8-1.22-1.6-1.84-2.41v.03c.25-.59.49-1.18.73-1.77l-.02.02,3.03-.39-.04-.03,1.15,1.49c-.03-.1-.04-.22-.06-.33l.09.66c-.11-.84-.12-1.68-.03-2.52.06-.57-.32-1.39-.73-1.77s-.88-.61-1.44-.69-1.13,0-1.59.3c-.51.33-1.05.87-1.15,1.49-.06.37-.12.75-.17,1.12l4.91.66c0-.3.03-.6.07-.9l-.09.66c.09-.64.26-1.26.51-1.86l-4.91-.66c0,.91,0,1.81,0,2.72,0,1.31,1.15,2.56,2.5,2.5s2.45-1.1,2.5-2.5c.02-.58.06-1.16.13-1.73l-.09.66c.09-.66.24-1.31.5-1.93l-.25.6c.18-.42.4-.81.68-1.17l-.39.51c.17-.21.35-.39.55-.57.99-.86.95-2.66,0-3.54-1.05-.97-2.48-.92-3.54,0h0Z"/>
      <path class="cls-1" d="M195.92,205.43l.4,1.09c.43,1.18,1.45,1.96,2.74,1.79,1.18-.16,2.22-1.21,2.17-2.46-.02-.52-.04-1.05-.07-1.57h-5c.06.56.13,1.12.28,1.67.33,1.2,1.53,1.95,2.74,1.79s2.1-1.2,2.17-2.46c.02-.44.05-.88.07-1.32h-5c.04.57.07,1.17.28,1.7.24.63.55,1.14,1.15,1.49.54.31,1.33.45,1.93.25,1.28-.42,2.12-1.73,1.75-3.08-.11-.4-.2-.81-.26-1.22l.09.66c-.1-.79-.1-1.57,0-2.36l-.09.66c.09-.65.24-1.28.49-1.89l-.25.6c.16-.38.36-.74.6-1.08l-.39.51c.05-.07.1-.13.15-.19.43-.52.73-1.06.73-1.77,0-.61-.27-1.35-.73-1.77-.92-.84-2.65-1.08-3.54,0-1.01,1.22-1.64,2.62-1.88,4.19-.25,1.68-.21,3.33.25,4.98l4.82-1.33c-.08-.21-.13-.42-.16-.64l.09.66c-.01-.13-.02-.27-.03-.4-.05-.67-.25-1.28-.73-1.77-.43-.43-1.15-.76-1.77-.73-1.41.06-2.42,1.1-2.5,2.5-.02.44-.05.88-.07,1.32l4.91-.66c-.08-.28-.14-.57-.18-.86l.09.66-.02-.14c-.08-.68-.23-1.26-.73-1.77-.43-.43-1.15-.76-1.77-.73-1.31.06-2.56,1.1-2.5,2.5.02.52.04,1.05.07,1.57l4.91-.66-.4-1.09c-.23-.62-.56-1.15-1.15-1.49-.54-.31-1.33-.45-1.93-.25-1.2.39-2.22,1.76-1.75,3.08h0Z"/>
      <path class="cls-1" d="M196.9,206.99c.44,1.16,1.12,2.21,2.05,3.04.31.27.7.37,1.09.21.35-.15.63-.52.61-.91-.02-.77-.64-1.15-1.17-1.58-.43-.35-.86-.7-1.29-1.06-.21-.17-.42-.29-.71-.29-.25,0-.54.11-.71.29s-.3.44-.29.71c.01.28.12.49.29.71.45.56.9,1.13,1.42,1.62.67.63,1.75,1.41,2.65.71.82-.63.57-1.92.29-2.77-.25-.75-.61-1.46-.98-2.15l-1.73,1.01c.57.93,1.14,1.87,1.71,2.8.13.21.36.4.6.46.28.06.51.01.77-.1.46-.2.68-.78.65-1.26-.03-.38-.11-.77-.2-1.14-.17-.72-.42-1.41-.71-2.09l-1.73,1.01c.37.8.74,1.6,1.11,2.39.18.38.74.59,1.13.46.45-.15.69-.51.73-.96.07-.76-.13-1.56-.53-2.21-.28-.44-.91-.66-1.37-.36s-.65.89-.36,1.37c.04.06.07.12.1.18.02.03.03.06.05.09.03.07.02.04-.03-.08.03.13.09.26.12.39,0,.03.06.18.04.2l-.02-.13s0,.09.01.14c0,.14,0,.27-.01.41l1.86-.5c-.37-.8-.74-1.6-1.11-2.39-.22-.48-.94-.63-1.37-.36-.21.14-.4.34-.46.6-.06.28-.01.51.1.77.1.23-.08-.2.01.03.02.06.05.11.07.17.05.13.09.25.14.38.08.24.16.49.22.74s.12.5.17.75c.01.06.02.12.03.18.03.19-.02.05,0-.04,0,.02,0,.05,0,.07,0,.08,0,.03.03-.14-.08.29.59-.52.31-.4l1.37.36c-.57-.93-1.14-1.87-1.71-2.8-.27-.45-.91-.66-1.37-.36s-.62.87-.36,1.37c.14.26.27.52.4.78.06.13.13.26.19.4.02.04.04.09.06.13l-.04-.11c.04.06.05.14.08.2.1.27.19.55.25.83.01.06.05.15.04.22-.02-.14-.02-.16-.01-.05v.07s.03.18,0,.22c.02-.15.02-.16,0-.05-.07.2.04.14.33-.2.4-.19.49-.28.29-.27.15.03.19.03.11.01-.21-.08.09.06,0,.01-.05-.03-.11-.06-.17-.1-.03-.02-.05-.04-.08-.06.11.08.13.1.07.06-.22-.19-.43-.38-.63-.58-.41-.42-.77-.88-1.14-1.34l-1.41,1.41c.37.3.74.6,1.11.91.17.14.35.28.52.43.09.08.19.15.28.23.04.03.08.08.13.11.04.04.03.03-.02-.04-.09-.11-.14-.25-.14-.4l1.71-.71c-.19-.17-.37-.35-.54-.53-.08-.09-.16-.18-.24-.28-.15-.18.13.18,0,0-.04-.05-.08-.11-.12-.16-.14-.2-.27-.41-.38-.62-.06-.12-.12-.24-.18-.36l-.03-.06c-.04-.1-.04-.08.02.06-.03-.02-.06-.15-.07-.19-.09-.25-.22-.46-.46-.6-.21-.13-.53-.18-.77-.1-.48.15-.9.71-.7,1.23h0Z"/>
      <path class="cls-1" d="M199.62,205.77c.19.35.36.7.52,1.07l-.1-.24c.28.66.42,1.4.91,1.94.24.26.64.35.97.26.3-.08.65-.37.7-.7s.06-.59-.01-.94c-.05-.23-.15-.46-.28-.65-.15-.22-.34-.39-.6-.46-.24-.07-.56-.04-.77.1s-.4.34-.46.6-.05.55.1.77c.05.07.09.14.12.21l-.1-.24c.04.09.06.18.08.27l-.04-.27c.01.1.01.19,0,.28l.04-.27v.04c.55-.15,1.11-.29,1.67-.44-.02-.02-.04-.04-.05-.06l.16.2c-.08-.1-.13-.21-.18-.32l.1.24c-.15-.37-.26-.75-.42-1.11-.19-.44-.39-.88-.62-1.31-.25-.46-.92-.65-1.37-.36-.47.3-.63.88-.36,1.37h0Z"/>
      <path class="cls-1" d="M199.75,206.02c.41.82.83,1.65,1.38,2.38.3.4.61.8,1,1.11.5.41,1.02.66,1.68.71.39.03.77-.28.91-.61.16-.39.06-.78-.21-1.09s-.57-.55-.89-.78c-.43-.29-1.13-.1-1.37.36-.27.51-.1,1.05.36,1.37.03.02.07.05.1.07.09.06.07.05-.05-.04,0,.02.13.11.14.12.11.1.21.2.3.31l.71-1.71c-.18-.01.19.04.07,0-.05-.01-.09-.02-.14-.04-.13-.03.04.02.08.04-.04-.02-.09-.04-.13-.06-.09-.05-.16-.1-.25-.16-.1-.07.19.16.04.03-.03-.03-.06-.05-.09-.08-.15-.14-.29-.29-.43-.45-.03-.03-.06-.07-.08-.1-.01-.01-.14-.18-.04-.05s-.02-.03-.04-.05c-.03-.04-.06-.09-.09-.13-.48-.68-.86-1.43-1.23-2.17-.24-.47-.93-.64-1.37-.36-.48.31-.61.87-.36,1.37h0Z"/>
      <path class="cls-1" d="M202.13,206.39l-.03-.02.2.16s-.04-.03-.05-.06l.16.2s-.03-.04-.04-.07l.1.24s-.02-.05-.02-.07l.04.27v-.04c-.5.29-1.01.58-1.51.86.45.3.88.63,1.33.94.51.35,1.03.64,1.6.88.32.13.75-.03.97-.26.12-.12.21-.27.26-.44.05-.18.05-.35,0-.53-.06-.4-.42-.69-.74-.88-.21-.13-.42-.25-.63-.38-.45-.27-1.12-.11-1.37.36s-.12,1.08.36,1.37c.27.16.56.31.81.49l-.2-.16s.04.03.05.05l-.16-.2s.03.04.04.06l-.1-.24s.01.04.02.06l1.23-1.23-.04-.02.24.1c-.97-.42-1.78-1.11-2.65-1.7-.6-.41-1.57.12-1.5.86.02.23.06.44.18.65s.27.32.46.47.55.16.77.1c.23-.06.48-.24.6-.46.12-.23.18-.51.1-.77l-.1-.24c-.09-.15-.21-.27-.36-.36h0Z"/>
      <path class="cls-1" d="M202.64,206.65c-.44-.21-.83-.31-1.3-.37-.21-.03-.45.09-.61.21-.17.13-.31.31-.36.52-.1.45.08.87.46,1.13l2.5,1.67.5-1.86-1.89-.04-.97-.02c-.2,0-.41-.02-.61.03-.36.09-.66.39-.76.75-.24.87.72,1.5,1.33,1.93.5.36,1.05.62,1.62.86l.53-1.93c-.57-.24-1.16-.36-1.77-.43-.24-.03-.49-.05-.73-.03-.54.05-1.05.34-1.19.9-.1.41.07.92.46,1.13.57.3,1.18.55,1.81.7.34.08.68.14,1.03.18.58.06,1.1-.27,1.28-.83.16-.5-.19-1.11-.7-1.23-.65-.16-1.3-.31-1.94-.47-.49-.12-.98.11-1.18.58s0,.96.41,1.25c1.06.74,2.43.75,3.67.69.52-.03,1.03-.44,1-1-.02-.52-.44-1.03-1-1s-1.07.05-1.6,0c-.23-.03.12.02.02,0-.07-.01-.14-.02-.21-.04-.12-.03-.24-.06-.35-.09-.06-.02-.11-.05-.17-.06.26.06.09.04.02,0-.13-.06-.25-.14-.37-.22l-.77,1.83c.65.16,1.3.31,1.94.47l-.7-1.23v.04c.07-.15.16-.29.25-.44l.34-.19c.18-.02.23-.02.15-.03-.03,0-.18-.02-.03,0,.16.02-.04,0-.08-.01-.05,0-.09-.02-.14-.02-.22-.04-.44-.09-.65-.16s-.4-.14-.6-.21c-.13-.05.17.08.04.02-.05-.02-.11-.05-.16-.07-.11-.05-.21-.1-.31-.16l.46,1.13-.37.47-.15.07s-.25,0-.13.02c.1.01.21,0,.32,0,.09,0,.19.01.28.02.03,0,.19.02.04,0-.17-.02.06.01.08.02.4.07.78.19,1.15.34.22.09.57.01.77-.1s.41-.36.46-.6c.06-.26.05-.54-.1-.77s-.34-.35-.6-.46c.27.11-.06-.03-.12-.06-.1-.05-.2-.1-.29-.15-.18-.1-.36-.21-.54-.32-.08-.05-.16-.11-.24-.17-.01,0-.18-.14-.06-.04s-.03-.02-.05-.04c-.08-.07-.17-.14-.25-.21-.03-.03-.06-.06-.1-.09-.02-.02-.05-.05-.07-.07-.06-.06-.03-.03.07.09l.14.5v-.05c-.05.17-.1.34-.14.5l.02-.04-.6.46c-.21.01-.26.02-.15.02h.12c.05,0,.1,0,.15,0h.42c.27.02.54.02.81.03l1.62.04c.42,0,.87-.32.96-.73.1-.45-.08-.87-.46-1.13l-2.5-1.67-.5,1.86c-.11-.01-.17-.03-.02,0,.06.01.11.03.17.04.04.01.09.03.13.04.23.07-.2-.09.02,0,.47.23,1.1.14,1.37-.36.24-.45.14-1.13-.36-1.37h0Z"/>
      <path class="cls-1" d="M209.27,209.28c0-.56-.33-1.05-.88-1.22-.44-.14-.92-.01-1.36.05-.89.13-1.78.32-2.65.55-1.06.28-.88,2.06.27,1.96,1.9-.16,3.61-.94,5.29-1.79.77-.39,1.52-.8,2.21-1.34.73-.56,1.39-1.2,2.04-1.84l-1.67-.97c-.06.16-.22.4-.34.54-.2.22-.41.42-.63.63-.47.45-.94.92-1.24,1.51-.23.44-.15.98.26,1.29s.91.24,1.31-.08c.45-.36.96-.63,1.49-.86l-1.21-1.57c-.78,1.01-2.02,1.76-3.08,2.46-.56.37-1.13.72-1.72,1.05-.23.13-.46.26-.71.35-.14.06-.28.1-.42.14-.1.03-.19.05-.29.06.07-.05.15-.04.25.03l.36.36.04.09v.53l.03-.08-.26.44c-.25.12-.27.14-.05.06.08-.02.15-.05.23-.07.15-.05.31-.09.46-.13.33-.09.67-.17,1-.26.7-.19,1.38-.41,2.04-.72.78-.36.57-1.65-.24-1.83-1.03-.23-2.01-.02-2.95.41-.83.38-1.56.92-2.39,1.28-.45.2-.59.84-.41,1.25.22.49.67.65,1.18.58.79-.12,1.59-.12,2.38-.06l-.5-1.86c-.34.18-.76.15-1.15.18-.57.05-1.11.15-1.61.45-.89.53-.46,1.8.5,1.86,3.39.22,6.67-1.43,8.95-3.87.88-.94-.53-2.36-1.41-1.41-1.95,2.08-4.64,3.47-7.53,3.28l.5,1.86c.34-.2.73-.18,1.13-.21.58-.05,1.11-.14,1.63-.42.39-.21.57-.72.46-1.13-.12-.45-.52-.7-.96-.73-.98-.08-1.94-.02-2.91.13l.77,1.83c.69-.3,1.31-.72,1.98-1.08.55-.29,1.2-.56,1.83-.42l-.24-1.83c-.57.26-1.19.42-1.79.58s-1.36.28-1.94.59c-.71.38-.9,1.34-.32,1.92.53.53,1.36.4,2,.2,1.24-.4,2.38-1.18,3.45-1.9.54-.36,1.06-.75,1.58-1.14.56-.43,1.14-.84,1.57-1.4.7-.91-.14-2.03-1.21-1.57-.69.3-1.3.7-1.89,1.17l1.57,1.21c.28-.53.73-.91,1.19-1.35.54-.52.97-1.09,1.22-1.8.34-.97-.99-1.64-1.67-.97-.58.57-1.17,1.16-1.82,1.67-.58.45-1.23.79-1.88,1.12-1.39.71-2.84,1.46-4.42,1.59l.27,1.96c.55-.15,1.09-.28,1.65-.38.25-.05.5-.09.75-.13.11-.02.21-.03.32-.05l.17-.02c.18,0,.15-.02-.09-.06l-.36-.36.06.09-.14-.5v.1c.02,1.29,2.02,1.29,2,0h0Z"/>
      <path class="cls-1" d="M213.84,206.16c-.72.91-1.45,1.83-2.41,2.41s-2.09,1.04-2.92,1.88c-.56.57-.19,1.79.71,1.71,1.53-.14,2.89-.74,4.04-1.76.48-.42.9-.9,1.34-1.37.22-.23.44-.46.67-.69s.44-.41.66-.56l-1.47-1.13c-.12.42-.29.65-.66,1s-.67.54-1.14.85c-.45.3-.64.88-.36,1.37s.89.62,1.37.36c.68-.36,1.31-.84,1.85-1.39.28-.29.53-.6.76-.93.11-.15.21-.31.31-.47s.17-.25.26-.34l-1.71-.71c0,.06,0,.13,0,.19.01-.11,0-.11-.02.01.11-.11-.03.05-.07.1.05-.07.05-.07,0-.02-.05.05-.04.05.02,0-.1.06-.11.06-.01.03-.06.02-.12.04-.18.05-.53.12-.84.73-.7,1.23.15.54.7.82,1.23.7,1.02-.23,1.78-1.23,1.72-2.28-.05-.87-1.05-1.32-1.71-.71-.29.27-.48.61-.69.94-.2.31-.3.44-.56.72-.48.51-.89.82-1.52,1.16l1.01,1.73c1.16-.76,2.33-1.65,2.72-3.05.22-.79-.73-1.65-1.47-1.13-1.05.74-1.83,1.73-2.74,2.62-.82.8-1.84,1.37-2.95,1.48l.71,1.71c.37-.38.7-.58,1.21-.86s1.02-.52,1.5-.83c1.06-.68,1.85-1.63,2.63-2.6.33-.42.41-1,0-1.41-.35-.35-1.08-.43-1.41,0h0Z"/>
      <path class="cls-1" d="M204.06,191.97c-1.41-.89-2.73.46-3.74,1.3-.94.78-1.88,1.56-2.26,2.77-.3.96.99,1.67,1.67.97.59-.61,1.1-1.3,1.5-2.05.23-.44.15-.98-.26-1.29s-.92-.24-1.31.08c-.69.56-1.16,1.29-1.51,2.1-.16.39.11.94.46,1.13.38.2.9.18,1.21-.16.73-.79,1.33-1.27,2.24-1.78s1.72-.8,2.76-1.18l-.97-1.67c-.98.9-1.97,1.8-2.98,2.67-.4.35-.38,1.07,0,1.41.43.4.98.35,1.41,0,.12-.09.23-.19.35-.28.01-.01.16-.12.1-.08-.07.06.12-.09.14-.1.24-.18.49-.35.74-.51.24-.15.48-.28.74-.39.09-.04-.09.03.08-.03.06-.02.12-.04.19-.06.16-.05.32-.09.48-.12l-1.23-.7c-.05-.18-.03-.34.07-.46.03-.04.03-.03-.02.01-.06.06-.12.13-.18.2-.12.13-.24.26-.37.39-.24.24-.48.48-.72.71-.51.48-1.03.92-1.58,1.35l1.41,1.41c.95-.75,1.9-1.51,2.85-2.26l-1.41-1.41c-.63.7-1.27,1.37-1.95,2.02l1.57,1.21c.1-.15-.04.03.03-.05.04-.04.08-.09.12-.14.1-.11.22-.21.33-.31s-.11.06.01,0c.07-.04.13-.08.19-.12.05-.03.1-.06.16-.09.02,0,.28-.13.09-.05.48-.2.88-.67.7-1.23-.15-.46-.71-.91-1.23-.7-.88.36-1.58.9-2.13,1.69-.28.41-.11,1.01.26,1.29.39.3.95.27,1.31-.08.67-.65,1.32-1.33,1.95-2.02.35-.39.41-1.04,0-1.41-.44-.4-.97-.35-1.41,0-.95.75-1.9,1.51-2.85,2.26-.41.33-.37,1.08,0,1.41.44.4.97.34,1.41,0,.66-.51,1.29-1.06,1.89-1.65.29-.29.58-.58.85-.88.42-.46.77-.98.57-1.62-.17-.54-.69-.81-1.23-.7-1.42.3-2.58,1.2-3.69,2.09l1.41,1.41c1-.88,2-1.77,2.98-2.67.31-.29.39-.85.16-1.21s-.71-.61-1.13-.46c-1.1.4-2.21.81-3.23,1.38s-1.88,1.26-2.65,2.09l1.67.97c-.07.16.02-.04.04-.07.04-.07.07-.14.11-.21.08-.14.17-.27.26-.4-.06.08-.02.02.02-.02.05-.06.11-.12.16-.18.12-.13.25-.24.39-.35l-1.57-1.21c-.17.32-.36.64-.57.93-.01.02-.16.21-.1.14s-.1.11-.11.13c-.13.15-.26.3-.4.44l1.67.97c.02-.06.04-.11.06-.17-.04.1-.04.1,0,0,.04-.08.08-.16.13-.23.02-.03.24-.32.11-.16.06-.07.12-.14.18-.2.3-.33.65-.61,1-.9.41-.34.81-.68,1.23-1.01.05-.04.05-.04-.02.01.05-.04.1-.07.15-.11.05-.03.11-.07.16-.09-.08.03-.09.03-.03.01.04-.01.08-.03.12-.04-.12.01-.13.01,0,0-.12-.03-.13-.03-.02,0-.11-.05-.11-.05-.01,0,.44.28,1.12.11,1.37-.36.26-.49.11-1.07-.36-1.37h0Z"/>
      <path class="cls-1" d="M207.02,192.11l-1.48.04-.69.02h-.4c-.18,0-.17.01.03.04l.2,1.57c.57-.67,1.67-.89,2.5-.96v-2c-1.65.16-3.21.57-4.74,1.22l1.21,1.57c1.65-1.32,3.79-.68,5.61-.13l-.24-1.83c-.91.53-1.92.89-2.97,1-1.27.14-1.3,1.89,0,2,.69.06,1.36,0,2.05-.11l-.53-1.93c-.99.2-1.98.44-2.95.72s-.91,1.62,0,1.93l.04.04-.36-.36-.03-.04v-.53l-.04.09.46-.6-.09.04.77-.1-.1-.02.6.46-.05-.08-.36,1.37c1.18-.74,2.63-.63,3.97-.54v-2l-1.34-.09c-1.11-.07-1.39,1.78-.27,1.96l2.66.44c1.01.16,1.62-.87.97-1.67-.57-.7-1.47-.88-2.09-1.49l-.44,1.67c.35-.12.74-.02,1.1.04.48.08.96.19,1.44.3l.27-1.96c-.99-.09-1.88-.48-2.68-1.06l-.5,1.86c1.54-.16,2.97.37,4.39.9.51.19,1.1-.21,1.23-.7.15-.56-.19-1.04-.7-1.23-1.57-.59-3.21-1.16-4.92-.98-1.01.11-1.33,1.26-.5,1.86,1.09.8,2.35,1.22,3.69,1.33,1.13.1,1.35-1.7.27-1.96-.6-.15-1.21-.27-1.83-.36s-1.19-.19-1.77.02c-.69.24-1.01,1.12-.44,1.67.62.6,1.55.82,2.09,1.49l.97-1.67-2.66-.44-.27,1.96,1.34.09c.54.04,1-.48,1-1,0-.57-.46-.96-1-1-1.7-.12-3.48-.13-4.98.81-.45.28-.65.89-.36,1.37.48.78,1.61.79,2.02-.06s-.22-1.52-.96-1.78v1.93c.98-.27,1.96-.51,2.95-.72.53-.11.83-.73.7-1.23-.16-.57-.7-.79-1.23-.7-.5.08-1.01.08-1.52.04v2c1.42-.16,2.74-.56,3.98-1.28.76-.44.57-1.58-.24-1.83-1.29-.39-2.64-.78-4.01-.72s-2.51.55-3.54,1.37c-.38.31-.36.96-.08,1.31.34.42.82.46,1.29.26,1.18-.5,2.45-.82,3.73-.95.54-.05,1-.42,1-1,0-.5-.46-1.05-1-1-1.35.12-2.99.47-3.92,1.55-.42.49-.38,1.22.2,1.57.52.31,1.1.24,1.68.22l1.88-.05c1.28-.04,1.29-2.04,0-2h0Z"/>
      <path class="cls-1" d="M210.98,195.65c.39.32.8.56,1.29.71,1.09.32,1.75-1.26.77-1.83-.53-.31-1.11-.53-1.71-.65-.49-.1-.98.1-1.18.58s0,.94.41,1.25c.48.36.97.7,1.47,1.03l.77-1.83c-.37-.15-.87-.4-1.27-.63l-.77,1.83c.09.03.18.06.27.09-.1-.04-.04-.02.02.01.16.08.31.16.46.26.07.04.13.09.2.14.25.17-.07-.06.06.05s.27.23.4.36c.53.52.85.96,1.22,1.47.31.42.88.67,1.37.36.44-.29.66-.89.36-1.37-.35-.55-.67-1.12-.97-1.7-.27-.52-.58-1.16-.78-1.64l-.96,1.27c.09,0,.18-.01.27-.01.05,0,.24.03.11,0,.18.03.35.09.52.16-.09-.04.05.03.06.04.08.04.17.08.25.13.18.1.35.2.53.31.95.58,2.08-.81,1.21-1.57-.54-.48-1.08-.95-1.62-1.43l-1.21,1.57c.72.4,1.45.79,2.17,1.19.84.46,1.92-.49,1.37-1.37-.41-.65-.94-1.19-1.5-1.71l-1.21,1.57c1.02.58,1.8,1.34,2.39,2.32l1.37-1.37c-.45-.31-.8-.59-1.22-1-.62-.6-1.7-.17-1.71.71s.28,1.68.47,2.51.3,1.52.36,2.34l1.86-.5c-.16-.34-.31-.69-.47-1.03-.22-.48-.95-.63-1.37-.36-.49.32-.59.86-.36,1.37.16.34.31.69.47,1.03.41.9,1.93.46,1.86-.5-.06-.88-.18-1.77-.37-2.63-.09-.39-.19-.78-.29-1.17-.11-.43-.17-.64-.16-1.05l-1.71.71c.5.48,1.05.92,1.62,1.31.85.58,1.86-.54,1.37-1.37-.75-1.26-1.82-2.32-3.1-3.04-.97-.55-2.06.77-1.21,1.57.45.42.9.86,1.18,1.31l1.37-1.37c-.72-.4-1.45-.79-2.17-1.19-.44-.24-.98-.14-1.29.26-.29.37-.3.98.08,1.31.54.48,1.08.95,1.62,1.43l1.21-1.57c-.82-.51-1.74-.99-2.74-.9-.57.05-1.24.61-.96,1.27.55,1.33,1.19,2.6,1.95,3.82l1.73-1.01c-1.02-1.38-2.12-2.77-3.83-3.29-1.09-.34-1.75,1.26-.77,1.83.56.32,1.15.59,1.75.83.46.19,1.01-.17,1.18-.58.2-.47.01-.98-.41-1.25-.5-.32-.99-.66-1.47-1.03l-.77,1.83c.5.1.83.22,1.23.45l.77-1.83c-.07-.02-.14-.04-.21-.07.06.02.06.02,0-.01-.04-.02-.28-.18-.2-.12-.4-.33-1.02-.42-1.41,0-.34.37-.43,1.06,0,1.41h0Z"/>
      <path class="cls-1" d="M212.25,197.08l2.31,3.71,1.37-1.37s-.21-.14-.11-.06c.09.07-.04-.04-.06-.06-.05-.05-.09-.11-.14-.16.06.07.05.07,0,0-.2-.28-.4-.56-.62-.83-.37-.46-.79-.88-1.25-1.26-.39-.32-.89-.4-1.31-.08-.39.3-.52.86-.26,1.29.38.64.74,1.29,1.08,1.96.08.16.15.31.23.47.04.08.07.15.11.23-.07-.15.05.14.05.14.06.16.11.32.14.49.06.26.02-.13,0,.13,0,.04-.04.31,0,.13l1.96.27c.01-.2.03-.39.06-.59-.02.2.01-.08.02-.12.02-.1.03-.19.05-.29.07-.4.17-.8.29-1.19s.25-.75.39-1.11c.03-.06.02-.06,0,.01.02-.05.04-.09.06-.13.04-.09.08-.18.12-.27.09-.19.19-.38.29-.57l-1.86-.5c.04.52.02,1.03-.02,1.55-.02.25-.05.5-.08.75,0,.07,0,.07,0,0,0,.07-.02.14-.03.21-.02.14-.04.28-.06.42l1.96.27v-1.73c0-.29,0-.58,0-.87,0-.14.02-.29,0-.43,0-.11,0-.09-.01.07-.08.21-.24.37-.48.46h-.53l-.38-.31.04.06c.09.28-.02-.11.03.05.04.13.09.26.12.39.01.06.02.12.04.18.04.19,0-.07,0,.05.01.14.03.28.03.42.04.62.05,1.23.16,1.85l1.93-.53c-.12-.55-.23-1.1-.31-1.65-.01-.07-.02-.14-.03-.21.01.09.01.08,0-.05-.02-.14-.03-.28-.05-.42s-.04-.28-.04-.42c0-.04,0-.08,0-.12,0,.24-.11.43-.34.58l-.5.14c-.51-.41-.7-.5-.56-.27.02.04.04.08.06.12.03.05.05.11.08.16-.09-.19.03.08.03.1.02.07.05.14.07.22.04.15.08.29.11.44.01.08.03.15.04.23-.04-.22,0,.08.01.1.07.65.05,1.3.02,1.96h2c-.05-.58-.15-1.14-.32-1.7-.16-.5-.7-.87-1.23-.7s-.87.7-.7,1.23c.07.22.13.43.17.66.02.1.04.21.06.31.01.07.01.07,0,0,0,.07.01.14.02.21.05.52.43,1.03,1,1s.98-.44,1-1c.03-.79.03-1.58-.08-2.36-.05-.41-.13-.81-.28-1.2-.17-.46-.38-1.03-.82-1.3-.58-.36-1.32-.18-1.67.41-.24.41-.18.88-.13,1.33.1.92.25,1.84.46,2.75.12.51.73.86,1.23.7.56-.18.79-.68.7-1.23-.05-.3.01.2-.01-.1,0-.08-.01-.15-.02-.23-.01-.17-.02-.34-.03-.51-.02-.34-.03-.68-.07-1.02-.1-.81-.35-2.02-1.3-2.22-.64-.14-1.25.25-1.43.87-.11.38-.08.79-.07,1.17v2.38c0,.5.39.92.87.98.44.06,1.03-.22,1.1-.72.17-1.15.34-2.3.26-3.47-.03-.43-.29-.86-.73-.96s-.91.06-1.13.46c-.89,1.63-1.4,3.42-1.54,5.27-.04.5.41.92.87.98s1.01-.23,1.1-.72c.19-1.04-.16-1.92-.6-2.84-.37-.77-.77-1.52-1.21-2.25l-1.57,1.21c.25.2.49.42.71.65.1.1.2.21.29.32.05.06.1.12.16.18.01.02.16.21.1.12-.06-.08.1.14.09.13.03.05.07.09.1.14.12.16.24.32.36.48.21.26.47.5.77.66.38.2.91.18,1.21-.16s.4-.82.16-1.21l-2.31-3.71c-.28-.44-.91-.66-1.37-.36s-.65.89-.36,1.37h0Z"/>
      <path class="cls-1" d="M217.89,197.02l-.02-.06-.1.77.03-.06-.36.36.06-.04-.5.14-.13-.02-.44-.26c-.07-.12-.07-.13-.02-.03.05.11.07.14.04.07.04.1.07.22.1.32.03.13.06.26.08.39.01.06.02.11.03.17-.01-.08,0-.05,0,.07.06.59.1,1.18.13,1.78.03.56.07,1.12.03,1.68-.01.25-.05.41-.12.68-.01.06-.02.14-.05.14.69-.37,1.1-.35,1.24.09-.02-.05-.03-.1-.04-.15-.12-.53-.73-.84-1.23-.7-.54.15-.82.7-.7,1.23.13.58.53,1.11,1.14,1.19.67.09,1.19-.32,1.44-.92.41-1.01.34-2.12.29-3.18s-.06-2.13-.36-3.12c-.17-.56-.44-1.2-1.05-1.4-.86-.27-1.68.51-1.44,1.38.14.52.71.84,1.23.7s.84-.71.7-1.23h0Z"/>
      <path class="cls-1" d="M215.74,199.41c-.48.09-.78.51-.94.94-.07.18-.11.38-.15.57-.08.41-.15.82-.31,1.2l.1-.24c-.03.07-.06.14-.1.2l.16-.2s-.03.03-.04.04l.2-.16h-.03c.17-.03.34-.08.5-.12h-.03c.09.02.18.03.27.04h-.03c.08.03.16.06.24.09h-.02c.07.04.13.09.2.14-.02-.01-.03-.03-.04-.04l.16.2c-.05-.07-.09-.15-.13-.24l.1.24c-.11-.25-.16-.52-.24-.77-.06-.2-.13-.39-.22-.58s-.21-.35-.35-.52c-.21-.27-.66-.34-.97-.26s-.65.37-.7.7c-.04.25-.07.49-.07.74s.04.5.09.74l1.93-.53c-.08-.32-.19-.64-.31-.94-.1-.25-.22-.46-.46-.6-.21-.13-.53-.18-.77-.1-.54.17-.82.68-.7,1.23.05.2.1.4.17.6.08.25.23.46.46.6.21.13.53.18.77.1s.48-.23.6-.46.19-.52.1-.77c-.07-.2-.12-.4-.17-.6l-1.93.53c.12.31.23.62.31.94.06.24.24.47.46.6s.53.18.77.1.48-.23.6-.46c.13-.25.16-.49.1-.77-.01-.06-.02-.11-.03-.17l.04.27c-.03-.23-.03-.46,0-.69l-.04.27s0-.06.01-.09l-1.67.44.02.03-.16-.2c.07.1.13.21.18.32l-.1-.24c.12.3.17.62.28.92.07.22.16.44.29.63.17.25.39.45.69.52.39.1.78-.03,1.06-.3.23-.22.34-.56.44-.85.06-.17.1-.35.14-.53.07-.35.11-.73.25-1.06l-.1.24s.04-.07.06-.11l-.16.2s.04-.04.06-.06l-.2.16s.03-.02.05-.03l-.24.1s.04-.01.06-.01c.24-.05.48-.26.6-.46.13-.21.18-.53.1-.77s-.23-.48-.46-.6c-.25-.13-.49-.15-.77-.1h0Z"/>
      <path class="cls-1" d="M174.72,195.37c-1.28.44-1.91,1.69-2.54,2.81-.72,1.29-1.33,2.65-1.94,4-.52,1.16,1.18,2.18,1.73,1.01,1.05-2.23,1.99-4.51,2.8-6.84.31-.89-.75-1.49-1.47-1.13-1.19.59-1.93,1.89-2.59,3s-1.31,2.4-1.66,3.7c-.24.89-.68,2.56.54,2.95,1.34.43,1.83-1.31,2.17-2.22.43-1.17,1.03-2.72.97-3.99-.06-1.2-1.27-1.75-2.22-.99-1.01.8-1.15,2.66-1.34,3.84s-.64,2.6.44,3.38c.52.38,1.32-.02,1.47-.6.31-1.23.34-2.41.15-3.66-.13-.81-1.17-.87-1.67-.44-.57.49-.83,1.15-1.01,1.87h1.93c-.2-1.09.29-3.41,1.29-4.08l-1.37-1.37c-.2.4-.43.78-.71,1.13l1.67.97c.29-1.1,1.13-2,1.88-2.82s1.53-1.52,2.64-1.77l-.97-1.67c-.81.63-1.62,1.25-2.43,1.88l1.41,1.41c1.05-1.34,2.4-2.69,4.18-2.9l-.27-1.96c-1.36.54-2.66,1.19-3.89,2-1.07.7-.11,2.39,1.01,1.73s2.34-1.16,3.63-1.48l-.97-1.67c-1.97,1.99-3.63,4.26-4.89,6.77-.59,1.17.97,2.03,1.73,1.01.98-1.32,2-2.64,3.41-3.52l-1.21-1.57c-.99,1.19-1.94,2.41-2.86,3.65-.67.92.81,2.04,1.57,1.21.57-.63,1.18-1.2,1.86-1.71l-1.37-1.37c-.49.78-1.05,1.47-1.71,2.11l1.41,1.41.89-.92-1.57-1.21c-.34.66-.72,1.29-1.14,1.9l1.86.5c-.02-.31-.05-.57-.12-.87-.24-1.04-1.61-.85-1.93,0-.69,1.82-1.08,3.71-1.22,5.65-.08,1.12,1.73,1.37,1.96.27.36-1.7.47-3.4.31-5.13-.07-.75-1.11-1.46-1.71-.71-.75.94-.8,1.99-.83,3.16-.03,1.25-.11,2.57.51,3.7.33.6,1.09.61,1.57.2.8-.68.8-1.69.9-2.66s.07-2.63.78-3.34l-1.67-.97c-.36,1.21-.57,2.43-.66,3.69-.08,1.13,1.69,1.35,1.96.27.11-.42.15-.81.15-1.24h-2c.15,1.69-.39,3.3.54,4.85.67,1.12,2.29.14,1.73-1.01-.51-1.03-1.04-2.04-1.59-3.04-.43-.78-1.57-.55-1.83.24-.29.92.2,1.96.52,2.82.38,1.02.84,2.02,1.37,2.98.63,1.15,2.23.14,1.73-1.01-.96-2.17-2.3-5.06-4.73-5.85-.78-.25-1.36.53-1.23,1.23.26,1.38.83,2.66,1.47,3.91l1.73-1.01c-.74-1.37-1.78-2.47-3.09-3.31-.78-.51-1.63.33-1.47,1.13.31,1.51.89,2.93,1.74,4.23.49.75,1.99.56,1.86-.5-.2-1.58-.94-2.84-2.28-3.71-.87-.56-1.84.53-1.37,1.37.69,1.23,1.32,2.54,2.13,3.7.65.93,1.59,1.67,2.78,1.6,3.09-.18.61-4.75-.08-6.08-.51-1-2.2-.31-1.83.77s.8,2.03,1.35,2.98c.44.75,1.02,1.8,2.02,1.81,2.52.03.78-3.64.42-4.75-.4-1.21-2.28-.72-1.93.53s1.03,2.38,2.02,3.25c.8.71,1.81,0,1.67-.97-.14-1.03-.86-1.78-1.63-2.43-.86-.72-2.11.17-1.57,1.21.58,1.12,1.39,2,2.42,2.72l1.01-1.73c-1.73-1.08-3.61-1.7-5.63-1.96-.71-.09-1.3.94-.86,1.5.78,1.01,1.73,2.8,3.06,3.11.76.18,1.69-.72,1.13-1.47-.77-1.02-1.69-1.72-2.89-2.16-.77-.28-1.66.78-1.13,1.47,1.02,1.32,2.29,2.25,3.9,2.74,1.06.32,1.81-1.34.77-1.83-.98-.46-1.96-.72-3.04-.81-.5-.04-1.06.5-1,1,.12.99.71,1.42,1.6,1.76s2.19.97,3.13.61c.71-.27,1.1-1.44.24-1.83-1.15-.52-2.32-.96-3.54-1.31-.67-.19-1.21.33-1.27.96l-.04.49c-.03.36.22.68.5.86,1.27.84,3.62,2.21,5.1,1.18.35-.24.61-.69.46-1.13-.42-1.23-1.15-2.17-2.23-2.89l-.77,1.83,3.79.89c1.25.29,1.79-1.63.53-1.93l-3.79-.89c-1.12-.26-1.71,1.2-.77,1.83.63.42,1.06.98,1.31,1.7l.46-1.13c-.65.45-2.53-.81-3.08-1.18l.5.86.04-.49-1.27.96c1.05.3,2.07.67,3.06,1.11l.24-1.83c-.13.05-.82-.19-1.1-.28-.22-.07-.43-.14-.64-.22s-.49-.33-.45.05l-1,1c.71.06,1.38.24,2.03.54l.77-1.83c-1.07-.32-2.02-.93-2.7-1.82l-1.13,1.47c.67.25,1.26.67,1.7,1.24l1.13-1.47c-.35-.08-.72-.74-.92-1-.32-.39-.63-.79-.94-1.18l-.86,1.5c1.66.21,3.21.81,4.62,1.69,1.11.69,2.05-1,1.01-1.73-.74-.52-1.29-1.2-1.7-2l-1.57,1.21c.53.44,1.02.83,1.12,1.54l1.67-.97c-.74-.66-1.24-1.41-1.5-2.37l-1.93.53c.18.54.36,1.09.54,1.63.07.22.12.66.27.82.03.28.2.28.51-.01.51-.03.59-.18.25-.47-.16-.45-.53-.88-.75-1.3-.29-.57-.53-1.16-.74-1.76l-1.83.77c.53,1.04,1.56,2.51,1.21,3.71l.7-.7c-.87.28-1.38-.88-1.72-1.49-.52-.92-1.04-1.84-1.56-2.76l-1.37,1.37c.7.45,1.19,1.14,1.29,1.98l1.86-.5c-.76-1.16-1.26-2.39-1.54-3.75l-1.47,1.13c1.02.66,1.79,1.53,2.37,2.6.61,1.14,2.31.13,1.73-1.01s-1.04-2.21-1.27-3.43l-1.23,1.23c.96.32,1.54,1.3,2.05,2.11.57.9,1.06,1.85,1.48,2.82l1.73-1.01c-.39-.71-.75-1.43-1.05-2.19-.19-.49-.8-1.57-.64-2.07l-1.83.24c.55,1,1.08,2.02,1.59,3.04l1.73-1.01c-.67-1.12-.15-2.61-.27-3.84s-1.99-1.31-2,0c.02.24,0,.48-.08.71l1.96.27c.07-1.08.28-2.12.59-3.16.29-.97-.97-1.66-1.67-.97-.78.76-.94,1.73-1.1,2.77-.08.54-.16,1.09-.22,1.64-.05.45.02,1.27-.35,1.59l1.57.2c-.37-.66-.26-1.58-.25-2.32,0-.59-.15-1.62.25-2.11l-1.71-.71c.15,1.55.09,3.08-.23,4.6l1.96.27c.13-1.76.52-3.46,1.15-5.11h-1.93l.05.34c.06,1.01,1.3,1.33,1.86.5.42-.61.79-1.24,1.14-1.9.51-.98-.75-2.06-1.57-1.21l-.89.92c-.89.93.49,2.32,1.41,1.41.78-.76,1.45-1.6,2.02-2.52.5-.8-.55-1.98-1.37-1.37s-1.57,1.27-2.26,2.03l1.57,1.21c.82-1.11,1.67-2.19,2.54-3.25.68-.82-.18-2.21-1.21-1.57-1.72,1.07-2.94,2.64-4.13,4.24l1.73,1.01c1.19-2.36,2.71-4.48,4.58-6.36.71-.72-.01-1.91-.97-1.67-1.45.36-2.82.92-4.11,1.68l1.01,1.73c1.08-.71,2.21-1.32,3.41-1.8.94-.38.96-2.11-.27-1.96-2.35.27-4.16,1.66-5.59,3.48-.8,1.02.39,2.21,1.41,1.41.81-.63,1.62-1.25,2.43-1.88.85-.66-.1-1.87-.97-1.67-1.43.32-2.56,1.22-3.52,2.28s-2.01,2.27-2.39,3.71c-.24.9,1.01,1.78,1.67.97.4-.49.74-.98,1.02-1.53.42-.83-.48-1.96-1.37-1.37-1.86,1.23-2.59,4.25-2.21,6.34.18,1,1.69.91,1.93,0,.1-.4.18-.71.5-.98l-1.67-.44c.14.88.07,1.73-.15,2.59l1.47-.6-.14-.1.46.6c-.19-.6.16-1.7.28-2.33.07-.35.14-.7.23-1.05.06-.23.12-.46.18-.69.18-.29.1-.38-.24-.26l-.6-.46c-.05-.12-.26.85-.28.97-.09.39-.19.77-.3,1.15s-.24.76-.37,1.13c-.09.24-.18.47-.28.71-.26.41-.16.44.31.08l.86.5c.06.33.08.27.09-.17l.06-.32c.06-.31.15-.63.25-.93.21-.64.5-1.25.82-1.85.55-1.05,1.26-2.64,2.37-3.19l-1.47-1.13c-.76,2.16-1.63,4.28-2.6,6.36l1.73,1.01c.47-1.04.93-2.08,1.46-3.1.23-.46.48-.91.74-1.35.23-.39.63-1.29,1.09-1.45,1.21-.41.69-2.35-.53-1.93h0Z"/>
      <path class="cls-1" d="M179.76,209.16c-.39-.32-.78-.59-1.24-.81l-.77,1.83c.39.09.78.14,1.18.11.92-.07,1.45-1.38.5-1.86-.44-.23-.89-.4-1.37-.49-.8-.15-1.63.68-1.13,1.47.29.45.62.71,1.13.86,1.24.37,1.76-1.56.53-1.93l-1.02-.31c-1.06-.32-1.82,1.34-.77,1.83s2,.73,3.1.8l-.5-1.86c-.83.37-1.66.73-2.5,1.1-.97.43-.4,1.82.5,1.86.6.03,1.2.06,1.79.09l-.86-1.5c.1-.15.15-.06-.04-.04s-.38.12-.55.17c-.33.09-.67.15-1.01.2-.95.14-.96,1.79,0,1.93.87.13,1.68.13,2.55-.02.97-.16.94-1.74,0-1.93s-1.8-.16-2.69.14c-.98.33-.92,1.58,0,1.93,1.95.75,4.17-.51,5.58-1.81.72-.66,1.38-2.04.08-2.52-.94-.35-2.2.01-3.16.13-1.25.16-1.32,1.94,0,2,.63.03,1.23-.03,1.85-.12.49-.07.78-.66.72-1.1-.07-.53-.48-.81-.98-.87l-.64-.07.27,1.96c.78-.25,1.54-.57,2.25-.97.62-.35,1.23-.98,1.95-1.09,1.12-.17.85-2-.27-1.96-.81.03-1.57.34-2.09.98-.67.83.17,2.21,1.21,1.57s2.07-1.44,2.92-2.37c.4-.43.79-.9,1.06-1.42s.28-1.09.55-1.57h-1.73l.07.12-.14-.5c.07.59-.56,1.49-.85,1.99-.43.74-.93,1.44-1.48,2.09-1.05,1.24-2.24,2.54-3.81,3.1-1.01.36-.92,2,.27,1.96,1.51-.05,3.1-1.02,4.37-1.78,1.13-.67.14-2.24-1.01-1.73-1.42.63-2.52,1.83-3.97,2.37-1.19.44-.69,2.36.53,1.93,1-.35,2.04-.52,3.02-.94s1.7-1.06,2.39-1.78,1.35-1.42,1.88-2.23c.28-.42.51-.9.66-1.39.13-.45.07-1,.27-1.42l-1.86-.5c.05.81-.57,1.78-.93,2.48-.41.79-.9,1.48-1.6,2.04l1.41,1.41c.52-.52,1.09-.91,1.75-1.22l-1.21-1.57c-.85.93-1.78,1.78-2.79,2.52-.93.68-.37,2.02.77,1.83.9-.15,1.68-.72,2.4-1.24.77-.56,1.45-1.17,2-1.95.5-.72.97-1.55,1.25-2.38.3-.89.42-1.75.9-2.59l-1.86-.5c-.16,1.38-.71,2.73-1.57,3.82l1.57,1.21c.71-1.33,1.93-2.28,2.59-3.65l-1.83-.24c.08.36-.38.88-.6,1.12-.34.39-.74.67-1.2.9-1.15.59-.14,2.31,1.01,1.73,1.49-.76,3.12-2.47,2.72-4.28-.18-.81-1.46-1.01-1.83-.24-.65,1.36-1.88,2.32-2.59,3.65-.51.95.84,2.14,1.57,1.21,1.22-1.55,1.93-3.28,2.16-5.24.12-1.02-1.4-1.31-1.86-.5-.41.72-.71,1.48-.89,2.28s-.49,1.43-.89,2.12-.86,1.21-1.47,1.68-1.32,1.04-2.09,1.16l.77,1.83c1.16-.85,2.23-1.78,3.2-2.83.79-.86-.2-2.05-1.21-1.57-.81.38-1.53.9-2.16,1.53-.93.93.44,2.21,1.41,1.41.87-.71,1.51-1.65,2.01-2.64s1.17-2.17,1.11-3.3c-.05-.9-1.41-1.47-1.86-.5-.37.79-.28,1.68-.7,2.45s-1.04,1.4-1.63,2.02-1.26,1.28-2.12,1.62-1.73.46-2.57.76l.53,1.93c1.64-.61,2.87-1.87,4.45-2.57l-1.01-1.73c-.56.33-1.13.64-1.72.92-.5.23-1.08.56-1.64.58l.27,1.96c2.09-.74,3.69-2.35,5.05-4.05.66-.83,1.28-1.7,1.76-2.65.44-.87,1.15-2.09.59-3.04-.38-.64-1.36-.66-1.73,0-.25.46-.32.94-.49,1.42-.16.45-.49.83-.81,1.17-.74.81-1.58,1.48-2.51,2.06l1.21,1.57c.19-.24.36-.38.67-.39l-.27-1.96c-.79.12-1.37.65-2.03,1.06s-1.41.76-2.17,1c-1.13.36-.83,1.84.27,1.96l.64.07-.27-1.96c-.44.06-.88.06-1.32.04v2c.46-.06.92-.12,1.38-.17.38-.05.89-.17,1.25-.03l-.7-.7.03.14.1-.77c-.3.66-1.18,1.11-1.78,1.45-.72.41-1.44.66-2.25.35v1.93c.55-.19,1.05-.26,1.63-.14v-1.93c-.49.08-1,.09-1.49.02v1.93c.97-.14,2.24-.35,2.79-1.25.42-.68-.13-1.46-.86-1.5-.6-.03-1.2-.06-1.79-.09l.5,1.86c.83-.37,1.66-.73,2.5-1.1.99-.43.38-1.81-.5-1.86-.72-.05-1.43-.22-2.09-.53l-.77,1.83,1.02.31.53-1.93.06.05-1.13,1.47c.32.06.61.14.9.29l.5-1.86c-.24.02-.42.02-.65-.04-1.05-.24-1.84,1.32-.77,1.83.29.14.58.29.84.5.42.34,1,.41,1.41,0,.36-.35.42-1.07,0-1.41h0Z"/>
      <path class="cls-1" d="M179.01,192.95c-.96.74-1.83,1.53-2.62,2.45-.32.38-.4.91-.08,1.31.29.37.87.54,1.29.26l1.97-1.34-1.21-1.57c-.67.58-1.36,1.12-2.09,1.62l1.21,1.57c.57-.69,1.3-1.16,2.12-1.5.9-.37,1.93-.49,2.68-1.14.55-.47.28-1.53-.44-1.67s-1.37-.11-2.08-.05c-.57.05-1.21.14-1.71-.2l.36.36-.09-.13.14.5v-.13c-.05.17-.1.34-.14.5-.05.09-.11.04.01.04.13,0,.35-.1.48-.14.29-.07.59-.13.88-.18.57-.09,1.16-.12,1.74-.16v-2c-.56.04-1.12.08-1.68.11-.28.02-.56.03-.84.04-.13,0-.25,0-.38,0-.13-.03-.14-.03-.02.01l.29.71v-.11c-.06.17-.11.34-.15.5-.09.15-.06.05.04.05.13,0,.32-.1.46-.13.27-.05.53-.08.8-.09.6-.03,1.2,0,1.8.08l-.27-1.96c-1.15.21-2.34.05-3.49-.09l.27,1.96c.83-.25,1.8-.1,2.65-.03s1.68.2,2.44.53c1.51.65,2.69,1.86,4.23,2.49v-1.93l.14.02c-1.24-.35-1.77,1.58-.53,1.93.31.09.62.1.92-.02.96-.37.93-1.55,0-1.93-.81-.33-1.53-.9-2.24-1.4s-1.5-.95-2.36-1.23c-.9-.3-1.86-.41-2.8-.48-.99-.07-2.02-.17-2.99.11-.47.14-.79.6-.72,1.1.08.53.47.81.98.87,1.35.16,2.67.27,4.02.02.48-.09.78-.64.72-1.1-.08-.53-.47-.8-.98-.87-.95-.12-1.9-.11-2.85.04-.76.12-1.85.45-2.08,1.29-.3,1.07.84,1.61,1.7,1.66.96.05,1.95-.09,2.9-.15,1.28-.09,1.29-2.09,0-2-1.02.07-2.06.14-3.05.38-.86.21-1.97.59-1.92,1.67s1.34,1.44,2.23,1.5,1.77-.22,2.63-.06l-.44-1.67c-.25.22-.81.27-1.12.38-.48.17-.96.35-1.42.57-.85.4-1.65.96-2.25,1.69-.32.38-.41.9-.08,1.31.29.36.87.55,1.29.26.86-.6,1.69-1.25,2.49-1.94.85-.74-.27-2.21-1.21-1.57l-1.97,1.34,1.21,1.57c.67-.78,1.4-1.51,2.22-2.13.43-.33.66-.86.36-1.37-.25-.42-.94-.69-1.37-.36h0Z"/>
      <path class="cls-1" d="M183.94,191.78l-.14-.27-.86,1.5c.12-.01.24-.02.36-.02.06,0,.12,0,.18.01-.19,0,0,0,.05.01.24.05.48.12.71.2s.46.16.69.25c.09.04.19.07.28.11.05.02.09.04.14.06.18.07-.11-.05,0,0,.38.17.75.35,1.09.59.01,0,.12.08.12.09,0,0-.15-.13-.03-.02.07.06.15.13.22.2.04.04.08.09.12.13.02.02.12.14.04.04s.02.02.03.05c.03.05.07.1.1.16l1.37-1.37c-.16-.09.06.08-.02,0-.04-.05-.09-.09-.13-.14-.34-.4-1.07-.37-1.41,0-.39.43-.36.98,0,1.41.15.18.35.34.56.45.86.49,1.89-.5,1.37-1.37-.55-.92-1.44-1.53-2.41-1.95-1.05-.46-2.26-1.01-3.44-.89-.36.04-.67.17-.86.5s-.17.69,0,1.01l.14.27c.24.46.93.64,1.37.36.47-.3.62-.87.36-1.37h0Z"/>
      <path class="cls-1" d="M184.51,193c.08.02.15.05.23.08.02,0,.19.07.11.04-.1-.04.13.06.15.07.06.03.12.06.18.08.28.14.54.29.81.45.52.31,1.04.63,1.56.95.05.03.11.07.16.1-.1-.08,0,0,.04.05.04.04.07.09.11.13.08.08-.09-.12.03.03.18.24.37.48.58.7.18.18.36.35.52.54.02.02.12.15.04.05-.08-.12.04.06.05.09,0,.01.08.13.07.13-.04-.11-.05-.13-.03-.06.01.04.02.07.03.11.14.5.71.87,1.23.7s.85-.69.7-1.23c-.18-.65-.61-1.14-1.08-1.6-.09-.09-.19-.19-.28-.29-.04-.05-.08-.1-.13-.15.13.14,0,0-.03-.03-.26-.35-.51-.64-.87-.89-.53-.37-1.12-.7-1.68-1.03-.63-.38-1.29-.72-1.99-.95-.5-.16-1.11.19-1.23.7-.12.55.16,1.06.7,1.23h0Z"/>
      <path class="cls-1" d="M187.96,194.67c.6.64,1.2,1.3,1.68,2.03.45.69.49,1.44.57,2.24.09.85.15,1.71.12,2.57-.01.41-.05.82-.13,1.23-.05.24-.12.84-.26.95l.44-.26-.11.02c-.53.09-.83.75-.7,1.23.15.56.7.79,1.23.7,1.14-.2,1.31-1.88,1.43-2.8.15-1.12.1-2.24,0-3.36s-.14-2.23-.67-3.21-1.4-1.92-2.18-2.76c-.88-.94-2.3.48-1.41,1.41h0Z"/>
      <path class="cls-1" d="M180.64,193.38c-.02.09-.06.16-.12.21-.51.52-.3,1.49.44,1.67l.09.02-.7-.7.03.08c.24.61,1.15,1.1,1.67.44.16-.2.28-.33.54-.34.71-.02,1.31-.85.86-1.5-.26-.38-.53-.64-.89-.92l.36,1.37.04-.06-.6.46c-.21.06-.16.01.02.08.12.05.25.07.38.11.28.08.56.18.84.28.53.19,1.04.4,1.56.61l.27-1.96c-.74-.05-1.44-.2-2.14-.43-1.11-.38-1.69,1.23-.77,1.83l1,.65.24-1.83c-.28.1-.56-.05-.84-.12-.44-.1-.85-.12-1.3-.03-.96.19-.95,1.73,0,1.93.56.12,1.14.22,1.66.46.63.29,1.19.74,1.76,1.13.49.34.96.55,1.18,1.12.23.63.4,1.27.52,1.93l1.83-.77c-.38-.65-.71-1.31-1-2l-1.73,1.01c.22.48.43.95.65,1.43l1.73-1.01-.84-1.66-1.57,1.21c.51.61.69,1.44.81,2.2s.26,1.69-.01,2.47l1.96.27c.05-.88.26-1.75.63-2.54l-1.86-.5c.07,1.21-.23,2.44-.41,3.62-.2,1.27,1.46,1.74,1.93.53.17-.44.34-.87.51-1.31l.22-.56.15-.37c.04-.06.03-.04-.03.05l-1.5-.86c.02.78-.02,1.56-.15,2.33-.08.49.09.98.58,1.18.42.17,1.04.05,1.25-.41.45-.97.9-1.95,1.36-2.92l-1.83-.77-.4,1.6,1.93.53c.36-1.58.14-3.19-.43-4.7-.27-.71-.57-1.46-.98-2.1-.22-.33-.49-.61-.86-.77-.42-.18-.76-.1-1.19-.03h.53c-.34-.1-.78-.57-1.07-.79-.39-.29-.79-.58-1.18-.88-.43-.32-1.12-.07-1.37.36-.3.51-.07,1.04.36,1.37.91.7,1.81,1.47,2.34,2.5s.67,2.29.83,3.44c.06.43.57.73.96.73.45,0,.83-.31.96-.73l.06-.18c.39-1.23-1.54-1.76-1.93-.53l-.06.18h1.93c-.19-1.4-.43-2.82-1.12-4.08s-1.84-2.19-2.97-3.06l-1.01,1.73c.73.54,1.43,1.15,2.2,1.63.17.11.34.19.53.24.05.01.61.08.66-.02-.3-.15-.4-.16-.3-.02l.08.13c.11.19.21.4.3.6.66,1.37,1.13,2.94.78,4.46-.28,1.25,1.61,1.78,1.93.53l.4-1.6c.27-1.05-1.33-1.83-1.83-.77-.45.97-.9,1.95-1.36,2.92l1.83.77c.15-.95.24-1.9.22-2.86-.02-.79-.83-1.2-1.5-.86-.61.3-.81.93-1.04,1.52-.24.62-.49,1.25-.73,1.87l1.93.53c.21-1.36.57-2.78.48-4.15-.06-.9-1.41-1.47-1.86-.5-.53,1.13-.84,2.3-.9,3.55-.03.49.4.93.87.98.51.06.93-.24,1.1-.72.4-1.12.19-2.39.01-3.53s-.58-2.19-1.33-3.09c-.31-.38-.96-.36-1.31-.08-.4.32-.49.83-.26,1.29l.84,1.66c.24.48.92.62,1.37.36.5-.3.58-.87.36-1.37s-.43-.95-.65-1.43-.94-.61-1.37-.36c-.51.3-.57.87-.36,1.37.29.69.63,1.35,1,2,.6,1.02,2.03.31,1.83-.77-.14-.75-.34-1.49-.63-2.2-.35-.87-.91-1.31-1.66-1.83-.65-.45-1.3-.95-2-1.31s-1.46-.55-2.23-.71v1.93c.25-.05.61.14.86.19.43.08.86.1,1.28-.04.82-.29.98-1.35.24-1.83l-1-.65-.77,1.83c.87.29,1.76.45,2.67.51.49.03.93-.4.98-.87.06-.53-.24-.9-.72-1.1-.76-.31-1.52-.62-2.3-.86s-1.66-.52-2.19.31c-.32.5-.05,1.05.36,1.37.07.05.13.14.18.2l.86-1.5c-.76.02-1.48.32-1.96.92l1.67.44c-.16-.41-.37-.7-.82-.8l.44,1.67c.18-.18.33-.38.44-.61.22-.49.14-1.08-.36-1.37-.43-.25-1.15-.14-1.37.36h0Z"/>
      <path class="cls-5" d="M-98.09,229.17"/>
      <polyline class="cls-5" points="0 1.01 0 0 190.73 0 200.69 -.03 200.82 0"/>
    </g>
  </g>
</svg>