<?xml version="1.0" standalone="no"?><!DOCTYPE svg PUBLIC "-//W3C//DTD SVG 1.1//EN" "http://www.w3.org/Graphics/SVG/1.1/DTD/svg11.dtd"><svg t="1724738437495" class="icon" viewBox="0 0 1024 1024" version="1.1" xmlns="http://www.w3.org/2000/svg" p-id="15342" xmlns:xlink="http://www.w3.org/1999/xlink" width="200" height="200"><path d="M76.8 972.8a25.6 25.6 0 0 1-25.6-25.6v-870.4a25.6 25.6 0 0 1 25.6-25.6 25.6 25.6 0 0 1 25.6 25.6v870.4a25.6 25.6 0 0 1-25.6 25.6z" fill="#C4C6C9" p-id="15343"></path><path d="M941.2608 972.8H76.8a25.6 25.6 0 0 1-25.6-25.6 25.6 25.6 0 0 1 25.6-25.6h864.4608a25.6 25.6 0 0 1 25.6 25.6 25.6 25.6 0 0 1-25.6 25.6z" fill="#C4C6C9" p-id="15344"></path><path d="M218.2144 793.6a115.8656 115.8656 0 0 1-78.3872-36.8128 25.6 25.6 0 0 1 1.8944-36.1472 25.2928 25.2928 0 0 1 35.84 1.7408 61.44 61.44 0 0 0 44.6464 19.7632c22.3744-2.5088 40.96-26.9312 52.4288-47.0016a542.976 542.976 0 0 0 30.1056-196.1984 925.952 925.952 0 0 1 21.6064-188.0064c18.6368-66.56 54.0672-100.096 105.472-100.096h4.2496c44.544 1.5872 75.3152 31.4368 91.4944 88.7808a801.6384 801.6384 0 0 1 19.4048 157.6448c6.6048 107.2128 13.4656 218.0608 76.8 225.28 65.9456 7.4752 77.5168-30.72 89.7024-125.7472 7.68-60.2112 15.6672-122.4704 61.44-155.0848a105.3184 105.3184 0 0 1 87.5008-19.4048 200.5504 200.5504 0 0 1 107.52 95.744 25.6 25.6 0 0 1-10.5984 34.6112 25.2928 25.2928 0 0 1-34.3552-10.6496 147.968 147.968 0 0 0-74.5984-69.888 54.9888 54.9888 0 0 0-46.08 11.3664c-27.4944 19.6608-33.9968 70.6048-40.2944 119.8592a330.3424 330.3424 0 0 1-29.2864 117.3504 107.8272 107.8272 0 0 1-116.48 52.736c-48.5376-5.4784-82.2784-39.936-100.2496-102.4a842.0352 842.0352 0 0 1-21.6576-170.5472 769.4336 769.4336 0 0 0-17.6128-146.8416c-12.544-44.544-29.44-51.2-44.3392-51.5584h-1.9456c-60.0064 0-69.7344 99.4304-76.8 239.4624a549.5296 549.5296 0 0 1-36.9152 219.2896A125.44 125.44 0 0 1 227.328 793.088a86.3232 86.3232 0 0 1-9.1136 0.512z" fill="#81C6C6" p-id="15345"></path></svg>