<?xml version="1.0" standalone="no"?><!DOCTYPE svg PUBLIC "-//W3C//DTD SVG 1.1//EN" "http://www.w3.org/Graphics/SVG/1.1/DTD/svg11.dtd"><svg t="1723405774749" class="icon" viewBox="0 0 1024 1024" version="1.1" xmlns="http://www.w3.org/2000/svg" p-id="18515" xmlns:xlink="http://www.w3.org/1999/xlink" width="200" height="200"><path d="M512 1024a512.5632 512.5632 0 0 1-512-512 512.5632 512.5632 0 0 1 512-512 512.5632 512.5632 0 0 1 512 512 512.5632 512.5632 0 0 1-512 512z m-126.464-298.5984c28.0576 131.9424 77.7216 217.1904 126.464 217.1904s98.4064-85.248 126.3616-217.1904l1.6384-7.7824h-256z m-246.6304 1.8944a435.2 435.2 0 0 0 212.992 184.6272l16.1792 6.5024-8.0384-15.36a662.5792 662.5792 0 0 1-58.4192-180.0192l-1.024-5.12H133.2736z m583.3728-4.4032a659.712 659.712 0 0 1-58.4192 180.0192l-8.0384 15.36 16.2304-6.5024a434.432 434.432 0 0 0 212.9408-184.6272l5.632-9.6768h-167.168zM98.1504 392.3968A430.4896 430.4896 0 0 0 81.3056 512a430.08 430.08 0 0 0 16.8448 119.552l1.3312 4.6592h189.44l-0.7168-7.1168a1222.4512 1222.4512 0 0 1-5.5296-117.1968v-9.7792c0.256-36.096 2.0992-72.2432 5.4784-107.52l0.7168-7.1168h-189.44z m637.44 2.4064c3.6864 37.9392 5.5808 77.3632 5.5808 117.1968s-1.8944 79.872-5.5808 117.1968l-0.7168 7.1168h189.44l1.3312-4.7104A427.4688 427.4688 0 0 0 942.4896 512a426.7008 426.7008 0 0 0-16.8448-119.6032l-1.3312-4.7104h-189.44z m-365.1072-1.3312A1086.976 1086.976 0 0 0 364.1344 512v9.9328a1079.6032 1079.6032 0 0 0 6.3488 108.5952l0.6144 5.7856h281.6l0.6656-5.7856A1103.6672 1103.6672 0 0 0 659.712 512a1096.96 1096.96 0 0 0-6.2976-118.528l-0.6656-5.7856h-281.6z m293.376-272.4352a660.8384 660.8384 0 0 1 58.4192 180.0192l1.024 5.12h167.5776l-5.632-9.728a434.176 434.176 0 0 0-213.0432-184.32l-16.2304-6.5024z m-155.0336-39.5776c-47.7696 3.7888-96.1536 88.9856-123.2896 217.0368l-1.6384 7.8336h256l-1.6384-7.8336c-27.904-131.9424-77.5168-217.1904-126.3616-217.1904z m-161.0752 32.256A434.7392 434.7392 0 0 0 138.9056 296.6016l-5.632 9.728h167.3216l1.024-5.12a659.0976 659.0976 0 0 1 58.4192-180.0192l8.0896-15.36z" fill="#666666" p-id="18516"></path></svg>