<?xml version="1.0" standalone="no"?><!DOCTYPE svg PUBLIC "-//W3C//DTD SVG 1.1//EN" "http://www.w3.org/Graphics/SVG/1.1/DTD/svg11.dtd"><svg t="1723405281461" class="icon" viewBox="0 0 1027 1024" version="1.1" xmlns="http://www.w3.org/2000/svg" p-id="13071" xmlns:xlink="http://www.w3.org/1999/xlink" width="200.5859375" height="200"><path d="M870.85044 150.146628C774.756598 54.052786 651.636364 3.002933 516.504399 0h-15.014663C369.360704 3.002933 243.237537 54.052786 150.146628 150.146628 54.052786 246.240469 3.002933 369.360704 0 504.492669v12.01173c0 135.131965 54.052786 261.255132 150.146628 357.348973 96.093842 96.093842 225.219941 150.146628 360.351906 150.146628s264.258065-54.052786 360.351906-150.146628l21.020528-21.020527 3.002932-3.002933s0-3.002933 3.002933-3.002933c81.079179-93.090909 126.123167-210.205279 126.123167-336.328445-3.002933-135.131965-57.055718-264.258065-153.14956-360.351906zM387.378299 63.061584c-36.035191 42.041056-66.064516 99.096774-90.087976 171.167155C240.234604 219.214076 201.196481 198.193548 180.175953 186.181818c57.055718-57.055718 129.1261-102.099707 207.202346-123.120234z m-240.234604 159.155425c24.02346 15.014663 69.067449 39.038123 138.134897 60.058651-15.014663 63.061584-24.02346 132.129032-24.02346 204.199413H48.046921c6.005865-99.096774 42.041056-192.187683 99.096774-264.258064zM150.146628 801.782991c-60.058651-75.073314-96.093842-165.16129-102.099707-267.260997h213.208211c3.002933 75.073314 12.01173 144.140762 27.026393 207.202346-72.070381 18.017595-117.11437 42.041056-138.134897 60.058651z m30.029325 33.032258c21.020528-12.01173 60.058651-33.032258 120.117302-48.046921 21.020528 72.070381 54.052786 129.1261 90.087977 171.167156-81.079179-21.020528-153.14956-66.064516-210.205279-123.120235z m306.29912 135.131965c-42.041056-12.01173-81.079179-57.055718-114.111437-126.123167-9.008798-21.020528-18.017595-45.043988-27.026393-69.067449 39.038123-9.008798 87.085044-12.01173 141.13783-15.014663v210.205279z m0-255.249267c-60.058651 0-111.108504 9.008798-153.14956 15.014663-15.014663-60.058651-24.02346-126.123167-24.02346-198.193548h177.17302v183.178885z m0-228.222874h-177.17302c3.002933-69.067449 9.008798-135.131965 24.02346-195.190616 42.041056 9.008798 93.090909 15.014663 153.14956 15.014663v180.175953z m0-225.219941c-54.052786 0-102.099707-6.005865-141.13783-15.014663 9.008798-24.02346 18.017595-48.046921 27.026393-69.067448 33.032258-69.067449 72.070381-114.111437 114.111437-126.123168v210.205279z m387.378299-39.038123c60.058651 72.070381 96.093842 165.16129 102.099707 264.258064h-213.208211c-3.002933-75.073314-12.01173-144.140762-24.02346-204.199413 66.064516-21.020528 111.108504-45.043988 135.131964-60.058651zM840.821114 186.181818c-21.020528 12.01173-60.058651 33.032258-120.117302 51.049854-21.020528-72.070381-54.052786-132.129032-90.087976-171.167156 81.079179 18.017595 153.14956 63.061584 210.205278 120.117302zM534.521994 51.049853c42.041056 12.01173 84.082111 57.055718 114.111437 126.123168 9.008798 21.020528 18.017595 45.043988 27.026393 69.067448-39.038123 9.008798-87.085044 12.01173-141.13783 15.014663v-210.205279z m0 255.249267c60.058651 0 111.108504-6.005865 156.152493-15.014663 15.014663 60.058651 24.02346 126.123167 24.02346 195.190616h-180.175953v-180.175953z m0 225.219942h180.175953c0 69.067449-9.008798 138.134897-24.02346 198.193548-45.043988-9.008798-96.093842-15.014663-153.14956-15.014663v-183.178885z m0 438.428152v-210.205279c54.052786 0 102.099707 6.005865 141.13783 15.014663-9.008798 24.02346-18.017595 48.046921-27.026393 69.067449-33.032258 72.070381-72.070381 114.111437-114.111437 126.123167z m96.093842-12.01173c36.035191-42.041056 66.064516-99.096774 90.087976-171.167156 60.058651 15.014663 99.096774 36.035191 120.117302 48.046921-57.055718 57.055718-129.1261 102.099707-210.205278 123.120235z m240.234604-159.155425c-24.02346-15.014663-69.067449-39.038123-138.134897-60.058651 15.014663-63.061584 24.02346-132.129032 27.026392-207.202346h213.208212c-3.002933 102.099707-42.041056 195.190616-102.099707 267.260997z" fill="#CCCCCC" p-id="13072"></path></svg>