<?xml version="1.0" standalone="no"?><!DOCTYPE svg PUBLIC "-//W3C//DTD SVG 1.1//EN" "http://www.w3.org/Graphics/SVG/1.1/DTD/svg11.dtd"><svg t="1723425659353" class="icon" viewBox="0 0 1024 1024" version="1.1" xmlns="http://www.w3.org/2000/svg" p-id="22316" xmlns:xlink="http://www.w3.org/1999/xlink" width="200" height="200"><path d="M798.78 537.85c0.122-0.242 0.365-0.485 0.486-0.728 0.243-0.364 0.607-0.85 0.85-1.213 0.121-0.122 0.242-0.365 0.242-0.486 0.364-0.485 0.607-0.97 0.971-1.456l0.122-0.122c3.155-5.582 4.976-11.65 5.582-17.84v-0.243c0-0.607 0.122-1.092 0.122-1.699v-3.883c0-0.607-0.122-1.093-0.122-1.7v-0.242c-0.485-6.19-2.427-12.258-5.582-17.84l-0.122-0.122c-0.242-0.485-0.607-0.97-0.97-1.578-0.122-0.121-0.243-0.364-0.243-0.485-0.243-0.364-0.486-0.85-0.85-1.214-0.121-0.242-0.364-0.485-0.485-0.728-0.243-0.364-0.486-0.607-0.728-0.97-0.243-0.244-0.486-0.608-0.729-0.85-0.121-0.122-0.242-0.243-0.364-0.486-0.121-0.121-0.242-0.243-0.242-0.364-0.243-0.364-0.607-0.607-0.85-0.97-0.243-0.244-0.485-0.486-0.607-0.729l-0.85-0.85-0.728-0.728c-0.242-0.242-0.606-0.485-0.85-0.85l-0.727-0.727-0.364-0.365L288.57 56.525c-18.447-15.413-46.118-12.986-61.531 5.34-15.413 18.447-12.986 46.118 5.34 61.53L695.5 512 232.38 900.604c-18.447 15.413-20.875 43.205-5.34 61.531 15.413 18.447 43.205 20.875 61.53 5.34L791.5 545.496l0.364-0.364 0.728-0.728c0.243-0.243 0.607-0.486 0.85-0.85l0.728-0.728 0.85-0.85c0.242-0.242 0.485-0.485 0.606-0.728 0.243-0.364 0.607-0.606 0.85-0.97 0.121-0.122 0.243-0.243 0.243-0.365 0.12-0.12 0.242-0.242 0.364-0.485 0.242-0.243 0.485-0.607 0.728-0.85 0.485-0.12 0.728-0.485 0.97-0.728z" fill="#2C2C2C" p-id="22317"></path></svg>