<?xml version="1.0" standalone="no"?><!DOCTYPE svg PUBLIC "-//W3C//DTD SVG 1.1//EN" "http://www.w3.org/Graphics/SVG/1.1/DTD/svg11.dtd"><svg t="1723437673981" class="icon" viewBox="0 0 1024 1024" version="1.1" xmlns="http://www.w3.org/2000/svg" p-id="7965" xmlns:xlink="http://www.w3.org/1999/xlink" width="200" height="200"><path d="M511.271702 0C228.904797 0 0.002087 228.90271 0.002087 511.269615s228.90271 511.269615 511.269615 511.269615 511.269615-228.90271 511.269614-511.269615S793.638606 0 511.271702 0z m-1.460771 955.343795C263.817208 955.343795 64.275981 755.802568 64.275981 509.808845S263.817208 64.273894 509.810931 64.273894s445.53495 199.541227 445.53495 445.534951-199.541227 445.53495-445.53495 445.53495z" fill="#2FAF98" p-id="7966"></path><path d="M511.271702 512.730385m-255.634808 0a255.634807 255.634807 0 1 0 511.269615 0 255.634807 255.634807 0 1 0-511.269615 0Z" fill="#2FAF98" p-id="7967"></path><path d="M510.541316 512m-222.767475 0a222.767475 222.767475 0 1 0 445.534951 0 222.767475 222.767475 0 1 0-445.534951 0Z" fill="#2FAF98" p-id="7968"></path></svg>